<svg width="48" height="48" viewBox="0 0 48 48" fill="none" xmlns="http://www.w3.org/2000/svg">
<path d="M46 30V36C46 36.5304 45.7893 37.0391 45.4142 37.4142C45.0391 37.7893 44.5304 38 44 38H4C3.46957 38 2.96086 37.7893 2.58579 37.4142C2.21071 37.0391 2 36.5304 2 36V30H46Z" fill="#BEC6C6"/>
<path d="M46 8V30H2V8C2 7.46957 2.21071 6.96086 2.58579 6.58579C2.96086 6.21071 3.46957 6 4 6H44C44.5304 6 45.0391 6.21071 45.4142 6.58579C45.7893 6.96086 46 7.46957 46 8Z" fill="#F8F9F9"/>
<path d="M33 46H15C15.9514 45.0496 16.706 43.921 17.2208 42.6787C17.7356 41.4364 18.0003 40.1047 18 38.76V38H30V38.76C30.0015 41.4754 31.0805 44.0793 33 46Z" fill="#BEC6C6"/>
<path d="M2 20L6 18L9 21L14 19L9 26L5 23L2 25V20Z" fill="#BEC6C6"/>
<path d="M11 15C10.8013 15.0012 10.6069 14.9431 10.4413 14.8333C10.2758 14.7235 10.1468 14.5669 10.0706 14.3835C9.99442 14.2 9.97461 13.9981 10.0137 13.8033C10.0527 13.6086 10.1489 13.4299 10.29 13.29L11.59 12L10.29 10.71C10.1194 10.5393 10.0164 10.3126 9.99982 10.0718C9.98328 9.83109 10.0544 9.59247 10.2 9.4L13.2 5.4C13.3591 5.18783 13.596 5.04756 13.8585 5.01005C14.1211 4.97255 14.3878 5.04087 14.6 5.2C14.8121 5.35913 14.9524 5.59603 14.9899 5.85858C15.0274 6.12113 14.9591 6.38783 14.8 6.6L12.32 9.91L13.71 11.29C13.8037 11.383 13.8781 11.4936 13.9288 11.6154C13.9796 11.7373 14.0058 11.868 14.0058 12C14.0058 12.132 13.9796 12.2627 13.9288 12.3846C13.8781 12.5064 13.8037 12.617 13.71 12.71C11.53 14.89 11.54 15 11 15Z" fill="#BEC6C6"/>
<path d="M46 17L42 19L41 22L39 24H43L44 22H46V17Z" fill="#BEC6C6"/>
<path d="M44 5H4C3.20435 5 2.44129 5.31607 1.87868 5.87868C1.31607 6.44129 1 7.20435 1 8V36C1 36.7956 1.31607 37.5587 1.87868 38.1213C2.44129 38.6839 3.20435 39 4 39H17C16.9466 41.3668 15.979 43.621 14.3 45.29C14.1596 45.4293 14.0636 45.6071 14.0242 45.8009C13.9848 45.9947 14.0038 46.1958 14.0787 46.3789C14.1537 46.5619 14.2812 46.7186 14.4452 46.8292C14.6091 46.9397 14.8022 46.9992 15 47H33C33.1986 47.0012 33.3931 46.9431 33.5586 46.8333C33.7241 46.7235 33.8532 46.5669 33.9294 46.3835C34.0055 46.2 34.0253 45.9981 33.9863 45.8033C33.9472 45.6086 33.851 45.4299 33.71 45.29C32.0273 43.6226 31.056 41.3682 31 39H44C44.7957 39 45.5587 38.6839 46.1213 38.1213C46.6839 37.5587 47 36.7956 47 36V8C47 7.20435 46.6839 6.44129 46.1213 5.87868C45.5587 5.31607 44.7957 5 44 5ZM3 8C3 7.73478 3.10536 7.48043 3.29289 7.29289C3.48043 7.10536 3.73478 7 4 7H44C44.2652 7 44.5196 7.10536 44.7071 7.29289C44.8946 7.48043 45 7.73478 45 8V29H3V8ZM30.89 45H17.11C18.3028 43.2229 18.9589 41.1399 19 39H29C29.0411 41.1399 29.6972 43.2229 30.89 45ZM45 36C45 36.2652 44.8946 36.5196 44.7071 36.7071C44.5196 36.8946 44.2652 37 44 37H4C3.73478 37 3.48043 36.8946 3.29289 36.7071C3.10536 36.5196 3 36.2652 3 36V31H45V36Z" fill="#414141"/>
<path d="M25 35H23C22.7348 35 22.4804 34.8946 22.2929 34.7071C22.1054 34.5196 22 34.2652 22 34C22 33.7348 22.1054 33.4804 22.2929 33.2929C22.4804 33.1054 22.7348 33 23 33H25C25.2652 33 25.5196 33.1054 25.7071 33.2929C25.8946 33.4804 26 33.7348 26 34C26 34.2652 25.8946 34.5196 25.7071 34.7071C25.5196 34.8946 25.2652 35 25 35Z" fill="#F8F9F9"/>
<path d="M29 1L24 13H28L26 21L38 9H34L38 1H29Z" fill="#4985FF"/>
</svg>
