<svg width="110" height="110" viewBox="0 0 110 110" fill="none" xmlns="http://www.w3.org/2000/svg">
<path d="M55 35C43.98 35 35 43.98 35 55C35 66.02 43.98 75 55 75C66.02 75 75 66.02 75 55C75 43.98 66.02 35 55 35ZM64.56 50.4L53.22 61.74C52.94 62.02 52.56 62.18 52.16 62.18C51.76 62.18 51.38 62.02 51.1 61.74L45.44 56.08C44.86 55.5 44.86 54.54 45.44 53.96C46.02 53.38 46.98 53.38 47.56 53.96L52.16 58.56L62.44 48.28C63.02 47.7 63.98 47.7 64.56 48.28C65.14 48.86 65.14 49.8 64.56 50.4Z" fill="#292D32"/>
<circle cx="55" cy="55" r="54.5" stroke="#E0E0E0"/>
<circle cx="55" cy="55" r="44.5" stroke="#292D32"/>
</svg>
