<svg width="48" height="48" viewBox="0 0 48 48" fill="none" xmlns="http://www.w3.org/2000/svg">
<path d="M6 36V32C6 30.9391 6.42143 29.9217 7.17157 29.1716C7.92172 28.4214 8.93913 28 10 28C11.0609 28 12.0783 28.4214 12.8284 29.1716C13.5786 29.9217 14 30.9391 14 32V36H6Z" fill="#F8F9F9"/>
<path d="M44 9V42H10V2H38L44 9Z" fill="#F8F9F9"/>
<path d="M14 37C13.7348 37 13.4804 36.8946 13.2929 36.7071C13.1054 36.5196 13 36.2652 13 36V32C13 31.2044 12.6839 30.4413 12.1213 29.8787C11.5587 29.3161 10.7956 29 10 29C9.20435 29 8.44129 29.3161 7.87868 29.8787C7.31607 30.4413 7 31.2044 7 32V36C7 36.2652 6.89464 36.5196 6.70711 36.7071C6.51957 36.8946 6.26522 37 6 37C5.73478 37 5.48043 36.8946 5.29289 36.7071C5.10536 36.5196 5 36.2652 5 36V32C5 30.6739 5.52678 29.4021 6.46447 28.4645C7.40215 27.5268 8.67392 27 10 27C11.3261 27 12.5979 27.5268 13.5355 28.4645C14.4732 29.4021 15 30.6739 15 32V36C15 36.2652 14.8946 36.5196 14.7071 36.7071C14.5196 36.8946 14.2652 37 14 37Z" fill="#414141"/>
<path d="M38 2V7C38 7.53043 38.2107 8.03914 38.5858 8.41421C38.9609 8.78929 39.4696 9 40 9H44L38 2Z" fill="#BEC6C6"/>
<path d="M39 32H21C20.4477 32 20 32.4477 20 33V37C20 37.5523 20.4477 38 21 38H39C39.5523 38 40 37.5523 40 37V33C40 32.4477 39.5523 32 39 32Z" fill="#BEC6C6"/>
<path d="M15 35H5C3.89543 35 3 35.8954 3 37V45C3 46.1046 3.89543 47 5 47H15C16.1046 47 17 46.1046 17 45V37C17 35.8954 16.1046 35 15 35Z" fill="#4985FF"/>
<path d="M10.0001 38C9.56362 38.0045 9.14059 38.1516 8.79554 38.4189C8.4505 38.6863 8.20239 39.0592 8.08908 39.4807C7.97576 39.9022 8.00346 40.3493 8.16795 40.7536C8.33244 41.1579 8.62469 41.4973 9.0001 41.72V43C9.0001 43.2652 9.10545 43.5196 9.29299 43.7071C9.48053 43.8946 9.73488 44 10.0001 44C10.2653 44 10.5197 43.8946 10.7072 43.7071C10.8947 43.5196 11.0001 43.2652 11.0001 43V41.72C11.3755 41.4973 11.6678 41.1579 11.8322 40.7536C11.9967 40.3493 12.0244 39.9022 11.9111 39.4807C11.7978 39.0592 11.5497 38.6863 11.2046 38.4189C10.8596 38.1516 10.4366 38.0045 10.0001 38Z" fill="#F8F9F9"/>
<path d="M44.76 8.35C38.85 1.46 38.94 1.56 38.76 1.35C38.3 0.860004 39 1 10 1C9.73478 1 9.48043 1.10536 9.29289 1.2929C9.10536 1.48043 9 1.73479 9 2V24C9 24.2652 9.10536 24.5196 9.29289 24.7071C9.48043 24.8946 9.73478 25 10 25C10.2652 25 10.5196 24.8946 10.7071 24.7071C10.8946 24.5196 11 24.2652 11 24V3H37V7C37 7.79565 37.3161 8.55872 37.8787 9.12132C38.4413 9.68393 39.2044 10 40 10H43V41H20C19.7348 41 19.4804 41.1054 19.2929 41.2929C19.1054 41.4804 19 41.7348 19 42C19 42.2652 19.1054 42.5196 19.2929 42.7071C19.4804 42.8946 19.7348 43 20 43H44C44.2652 43 44.5196 42.8946 44.7071 42.7071C44.8946 42.5196 45 42.2652 45 42C45 7.06001 45.13 8.78 44.76 8.35ZM39 7V4.7L41.83 8H40C39.7348 8 39.4804 7.89465 39.2929 7.70711C39.1054 7.51957 39 7.26522 39 7Z" fill="#414141"/>
<path d="M27 8H15C14.7348 8 14.4804 7.89464 14.2929 7.70711C14.1054 7.51957 14 7.26522 14 7C14 6.73478 14.1054 6.48043 14.2929 6.29289C14.4804 6.10536 14.7348 6 15 6H27C27.2652 6 27.5196 6.10536 27.7071 6.29289C27.8946 6.48043 28 6.73478 28 7C28 7.26522 27.8946 7.51957 27.7071 7.70711C27.5196 7.89464 27.2652 8 27 8Z" fill="#BEC6C6"/>
<path d="M35 13H15C14.7348 13 14.4804 12.8946 14.2929 12.7071C14.1054 12.5196 14 12.2652 14 12C14 11.7348 14.1054 11.4804 14.2929 11.2929C14.4804 11.1054 14.7348 11 15 11H35C35.2652 11 35.5196 11.1054 35.7071 11.2929C35.8946 11.4804 36 11.7348 36 12C36 12.2652 35.8946 12.5196 35.7071 12.7071C35.5196 12.8946 35.2652 13 35 13Z" fill="#BEC6C6"/>
<path d="M17 17H15C14.7348 17 14.4804 16.8946 14.2929 16.7071C14.1054 16.5196 14 16.2652 14 16C14 15.7348 14.1054 15.4804 14.2929 15.2929C14.4804 15.1054 14.7348 15 15 15H17C17.2652 15 17.5196 15.1054 17.7071 15.2929C17.8946 15.4804 18 15.7348 18 16C18 16.2652 17.8946 16.5196 17.7071 16.7071C17.5196 16.8946 17.2652 17 17 17Z" fill="#BEC6C6"/>
<path d="M39 25H33C32.7348 25 32.4804 24.8946 32.2929 24.7071C32.1054 24.5196 32 24.2652 32 24C32 23.7348 32.1054 23.4804 32.2929 23.2929C32.4804 23.1054 32.7348 23 33 23H39C39.2652 23 39.5196 23.1054 39.7071 23.2929C39.8946 23.4804 40 23.7348 40 24C40 24.2652 39.8946 24.5196 39.7071 24.7071C39.5196 24.8946 39.2652 25 39 25Z" fill="#BEC6C6"/>
<path d="M39 21H15C14.7348 21 14.4804 20.8946 14.2929 20.7071C14.1054 20.5196 14 20.2652 14 20C14 19.7348 14.1054 19.4804 14.2929 19.2929C14.4804 19.1054 14.7348 19 15 19H39C39.2652 19 39.5196 19.1054 39.7071 19.2929C39.8946 19.4804 40 19.7348 40 20C40 20.2652 39.8946 20.5196 39.7071 20.7071C39.5196 20.8946 39.2652 21 39 21Z" fill="#BEC6C6"/>
<path d="M29 25H15C14.7348 25 14.4804 24.8946 14.2929 24.7071C14.1054 24.5196 14 24.2652 14 24C14 23.7348 14.1054 23.4804 14.2929 23.2929C14.4804 23.1054 14.7348 23 15 23H29C29.2652 23 29.5196 23.1054 29.7071 23.2929C29.8946 23.4804 30 23.7348 30 24C30 24.2652 29.8946 24.5196 29.7071 24.7071C29.5196 24.8946 29.2652 25 29 25Z" fill="#BEC6C6"/>
<path d="M39 29H21C20.7348 29 20.4804 28.8946 20.2929 28.7071C20.1054 28.5196 20 28.2652 20 28C20 27.7348 20.1054 27.4804 20.2929 27.2929C20.4804 27.1054 20.7348 27 21 27H39C39.2652 27 39.5196 27.1054 39.7071 27.2929C39.8946 27.4804 40 27.7348 40 28C40 28.2652 39.8946 28.5196 39.7071 28.7071C39.5196 28.8946 39.2652 29 39 29Z" fill="#BEC6C6"/>
<path d="M39 17H21C20.7348 17 20.4804 16.8946 20.2929 16.7071C20.1054 16.5196 20 16.2652 20 16C20 15.7348 20.1054 15.4804 20.2929 15.2929C20.4804 15.1054 20.7348 15 21 15H39C39.2652 15 39.5196 15.1054 39.7071 15.2929C39.8946 15.4804 40 15.7348 40 16C40 16.2652 39.8946 16.5196 39.7071 16.7071C39.5196 16.8946 39.2652 17 39 17Z" fill="#BEC6C6"/>
</svg>
