<svg width="110" height="110" viewBox="0 0 110 110" fill="none" xmlns="http://www.w3.org/2000/svg">
<path d="M49.0514 35C43.8214 35 39.5696 39.2602 39.5696 44.5005C39.5696 49.6408 43.5819 53.801 48.8119 53.981C48.9716 53.961 49.1313 53.961 49.2511 53.981H49.3509H49.3908C54.501 53.801 58.5133 49.6408 58.5333 44.5005C58.5333 39.2602 54.2814 35 49.0514 35Z" fill="#292D32"/>
<path d="M59.1936 59.2992C53.6243 55.579 44.5417 55.579 38.9325 59.2992C36.3973 60.9993 35 63.2994 35 65.7595C35 68.2197 36.3973 70.4998 38.9125 72.1799C41.7072 74.06 45.3801 75.0001 49.0531 75.0001C52.726 75.0001 56.399 74.06 59.1936 72.1799C61.7088 70.4798 63.1061 68.1997 63.1061 65.7195C63.0862 63.2594 61.7088 60.9793 59.1936 59.2992Z" fill="#292D32"/>
<path d="M70.988 45.6769C71.3074 49.5571 68.5527 52.9572 64.74 53.4172C64.72 53.4172 64.72 53.4172 64.7001 53.4172H64.6402C64.5204 53.4172 64.4006 53.4172 64.3008 53.4572C62.3645 53.5572 60.5879 52.9372 59.2505 51.7971C61.3066 49.9571 62.4843 47.197 62.2448 44.1968C62.105 42.5767 61.5461 41.0966 60.7077 39.8366C61.4662 39.4566 62.3446 39.2165 63.2428 39.1365C67.1554 38.7965 70.6487 41.7167 70.988 45.6769Z" fill="#292D32"/>
<path d="M74.9782 64.1825C74.8185 66.1226 73.5809 67.8027 71.5049 68.9427C69.5087 70.0428 66.9935 70.5628 64.4983 70.5028C65.9355 69.2027 66.7739 67.5827 66.9336 65.8626C67.1332 63.3824 65.9555 61.0023 63.6 59.1022C62.2626 58.0421 60.7055 57.2021 59.0088 56.582C63.4203 55.302 68.9697 56.162 72.3832 58.9222C74.2197 60.4023 75.1579 62.2624 74.9782 64.1825Z" fill="#292D32"/>
<circle cx="55" cy="55" r="54.5" stroke="#E0E0E0"/>
<circle cx="55" cy="55" r="44.5" stroke="#292D32"/>
</svg>
