<svg width="48" height="48" viewBox="0 0 48 48" fill="none" xmlns="http://www.w3.org/2000/svg">
<g clip-path="url(#clip0_54_380)">
<path d="M4 32C5.10457 32 6 31.1046 6 30C6 28.8954 5.10457 28 4 28C2.89543 28 2 28.8954 2 30C2 31.1046 2.89543 32 4 32Z" fill="#BEC6C6"/>
<path d="M13 46C14.1046 46 15 45.1046 15 44C15 42.8954 14.1046 42 13 42C11.8954 42 11 42.8954 11 44C11 45.1046 11.8954 46 13 46Z" fill="#BEC6C6"/>
<path d="M44 32C45.1046 32 46 31.1046 46 30C46 28.8954 45.1046 28 44 28C42.8954 28 42 28.8954 42 30C42 31.1046 42.8954 32 44 32Z" fill="#BEC6C6"/>
<path d="M35 46C36.1046 46 37 45.1046 37 44C37 42.8954 36.1046 42 35 42C33.8954 42 33 42.8954 33 44C33 45.1046 33.8954 46 35 46Z" fill="#BEC6C6"/>
<path d="M8 24C9.10457 24 10 23.1046 10 22C10 20.8954 9.10457 20 8 20C6.89543 20 6 20.8954 6 22C6 23.1046 6.89543 24 8 24Z" fill="#F8F9F9"/>
<path d="M4 41C5.10457 41 6 40.1046 6 39C6 37.8954 5.10457 37 4 37C2.89543 37 2 37.8954 2 39C2 40.1046 2.89543 41 4 41Z" fill="#F8F9F9"/>
<path d="M40 24C41.1046 24 42 23.1046 42 22C42 20.8954 41.1046 20 40 20C38.8954 20 38 20.8954 38 22C38 23.1046 38.8954 24 40 24Z" fill="#F8F9F9"/>
<path d="M44 41C45.1046 41 46 40.1046 46 39C46 37.8954 45.1046 37 44 37C42.8954 37 42 37.8954 42 39C42 40.1046 42.8954 41 44 41Z" fill="#F8F9F9"/>
<path d="M35 5.44V17.56C35.0004 17.9805 34.8682 18.3905 34.6223 18.7316C34.3763 19.0726 34.0291 19.3275 33.63 19.46L29 21V24L26 26L29 28V30L26 32L29 34V36L26 38L29 40V43L23 46L19 44V21L14.37 19.46C13.9709 19.3275 13.6237 19.0726 13.3777 18.7316C13.1318 18.3905 12.9996 17.9805 13 17.56V5.44C12.9996 5.01948 13.1318 4.60954 13.3777 4.26845C13.6237 3.92736 13.9709 3.67246 14.37 3.54C20.6247 1.47969 27.3753 1.47969 33.63 3.54C34.0291 3.67246 34.3763 3.92736 34.6223 4.26845C34.8682 4.60954 35.0004 5.01948 35 5.44Z" fill="#F8F9F9"/>
<path d="M24 11C25.6569 11 27 9.65685 27 8C27 6.34315 25.6569 5 24 5C22.3431 5 21 6.34315 21 8C21 9.65685 22.3431 11 24 11Z" fill="#4985FF"/>
<path d="M36 17.56V5.44001C36.0024 4.81765 35.8112 4.20995 35.4528 3.7011C35.0945 3.19226 34.5868 2.80745 34 2.60001C27.5386 0.463959 20.5614 0.463959 14.1 2.60001C13.4946 2.79039 12.9651 3.16788 12.5877 3.6782C12.2104 4.18851 12.0046 4.80535 12 5.44001V17.56C12.0012 18.1885 12.1997 18.8007 12.5675 19.3102C12.9353 19.8198 13.4539 20.201 14.05 20.4L18 21.72V44C18.0006 44.1847 18.0522 44.3656 18.1493 44.5227C18.2464 44.6798 18.3851 44.8069 18.55 44.89L22.55 46.89C22.6896 46.9603 22.8437 46.997 23 46.997C23.1563 46.997 23.3104 46.9603 23.45 46.89L29.45 43.89C29.6149 43.8069 29.7536 43.6798 29.8507 43.5227C29.9478 43.3656 29.9994 43.1847 30 43V40C29.9991 39.8353 29.9576 39.6734 29.8791 39.5286C29.8006 39.3838 29.6876 39.2606 29.55 39.17L27.8 38L29.55 36.83C29.6876 36.7394 29.8006 36.6163 29.8791 36.4715C29.9576 36.3267 29.9991 36.1647 30 36V34C29.9991 33.8353 29.9576 33.6734 29.8791 33.5286C29.8006 33.3838 29.6876 33.2606 29.55 33.17L27.8 32L29.55 30.83C29.6876 30.7394 29.8006 30.6163 29.8791 30.4715C29.9576 30.3267 29.9991 30.1647 30 30V28C29.9991 27.8353 29.9576 27.6734 29.8791 27.5286C29.8006 27.3838 29.6876 27.2606 29.55 27.17L27.8 26L29.55 24.83C29.6876 24.7394 29.8006 24.6163 29.8791 24.4715C29.9576 24.3267 29.9991 24.1647 30 24V21.72L34 20.4C34.5868 20.1926 35.0945 19.8078 35.4528 19.2989C35.8112 18.7901 36.0024 18.1824 36 17.56ZM33.32 18.56L28.68 20.1C28.4893 20.1642 28.3223 20.2844 28.201 20.445C28.0797 20.6055 28.0096 20.799 28 21V23.46L25.45 25.17C25.3139 25.2615 25.2023 25.385 25.1252 25.5298C25.0481 25.6745 25.0078 25.836 25.0078 26C25.0078 26.164 25.0481 26.3255 25.1252 26.4702C25.2023 26.615 25.3139 26.7385 25.45 26.83L28 28.54V29.46L25.45 31.17C25.3139 31.2615 25.2023 31.385 25.1252 31.5298C25.0481 31.6745 25.0078 31.836 25.0078 32C25.0078 32.164 25.0481 32.3255 25.1252 32.4702C25.2023 32.615 25.3139 32.7385 25.45 32.83L28 34.54V35.46L25.45 37.17C25.3139 37.2615 25.2023 37.385 25.1252 37.5298C25.0481 37.6745 25.0078 37.836 25.0078 38C25.0078 38.164 25.0481 38.3255 25.1252 38.4702C25.2023 38.615 25.3139 38.7385 25.45 38.83L28 40.54V42.38L23 44.88L20 43.38V21C20.0005 20.7904 19.9352 20.5858 19.8132 20.4154C19.6911 20.2449 19.5186 20.1171 19.32 20.05L14.68 18.51C14.473 18.4404 14.2945 18.305 14.1717 18.1244C14.0489 17.9439 13.9886 17.7281 14 17.51V5.44001C13.9886 5.22194 14.0489 5.00614 14.1717 4.82557C14.2945 4.645 14.473 4.50959 14.68 4.44001C20.7331 2.44467 27.2669 2.44467 33.32 4.44001C33.527 4.50959 33.7055 4.645 33.8283 4.82557C33.9511 5.00614 34.0114 5.22194 34 5.44001V17.56C34.0005 17.7696 33.9352 17.9742 33.8132 18.1446C33.6911 18.3151 33.5186 18.4429 33.32 18.51V18.56Z" fill="#414141"/>
<path d="M14.9999 29H6.81988C6.58399 28.3328 6.11981 27.7705 5.5094 27.4124C4.89899 27.0543 4.18164 26.9235 3.48415 27.0432C2.78665 27.1629 2.15392 27.5253 1.69778 28.0663C1.24163 28.6074 0.991455 29.2923 0.991455 30C0.991455 30.7077 1.24163 31.3926 1.69778 31.9337C2.15392 32.4747 2.78665 32.8371 3.48415 32.9568C4.18164 33.0765 4.89899 32.9457 5.5094 32.5876C6.11981 32.2296 6.58399 31.6672 6.81988 31H13.9999V34C13.9999 34.2652 14.1052 34.5196 14.2928 34.7071C14.4803 34.8946 14.7347 35 14.9999 35C15.2651 35 15.5195 34.8946 15.707 34.7071C15.8945 34.5196 15.9999 34.2652 15.9999 34V30C15.9999 29.7348 15.8945 29.4804 15.707 29.2929C15.5195 29.1054 15.2651 29 14.9999 29ZM3.99988 31C3.8021 31 3.60876 30.9414 3.44431 30.8315C3.27986 30.7216 3.15169 30.5654 3.076 30.3827C3.00031 30.2 2.98051 29.9989 3.0191 29.8049C3.05768 29.6109 3.15292 29.4328 3.29278 29.2929C3.43263 29.153 3.61081 29.0578 3.80479 29.0192C3.99877 28.9806 4.19984 29.0004 4.38257 29.0761C4.56529 29.1518 4.72147 29.28 4.83135 29.4444C4.94123 29.6089 4.99988 29.8022 4.99988 30C4.99988 30.2652 4.89453 30.5196 4.70699 30.7071C4.51945 30.8946 4.2651 31 3.99988 31Z" fill="#414141"/>
<path d="M14 41.18V39C13.9991 38.8353 13.9576 38.6733 13.8791 38.5285C13.8006 38.3838 13.6876 38.2606 13.55 38.17L11 36.46V34C11 33.7348 10.8946 33.4804 10.7071 33.2929C10.5196 33.1054 10.2652 33 10 33C9.73478 33 9.48043 33.1054 9.29289 33.2929C9.10536 33.4804 9 33.7348 9 34V37C9.00085 37.1647 9.04237 37.3267 9.12088 37.4715C9.19938 37.6162 9.31244 37.7394 9.45 37.83L12 39.54V41.18C11.3328 41.4159 10.7704 41.8801 10.4124 42.4905C10.0543 43.1009 9.92353 43.8182 10.0432 44.5157C10.1629 45.2132 10.5253 45.846 11.0663 46.3021C11.6074 46.7582 12.2923 47.0084 13 47.0084C13.7077 47.0084 14.3926 46.7582 14.9337 46.3021C15.4747 45.846 15.8371 45.2132 15.9568 44.5157C16.0765 43.8182 15.9457 43.1009 15.5876 42.4905C15.2296 41.8801 14.6672 41.4159 14 41.18ZM13 45C12.8022 45 12.6089 44.9414 12.4444 44.8315C12.28 44.7216 12.1518 44.5654 12.0761 44.3827C12.0004 44.2 11.9806 43.9989 12.0192 43.8049C12.0578 43.6109 12.153 43.4327 12.2929 43.2929C12.4327 43.153 12.6109 43.0578 12.8049 43.0192C12.9989 42.9806 13.2 43.0004 13.3827 43.0761C13.5654 43.1518 13.7216 43.28 13.8315 43.4444C13.9414 43.6089 14 43.8022 14 44C14 44.2652 13.8946 44.5196 13.7071 44.7071C13.5196 44.8946 13.2652 45 13 45Z" fill="#414141"/>
<path d="M6.99999 39C7.00153 38.4496 6.85166 37.9095 6.56676 37.4386C6.28187 36.9677 5.87293 36.5843 5.38471 36.3303C4.89649 36.0762 4.3478 35.9614 3.79869 35.9983C3.24958 36.0353 2.7212 36.2225 2.2714 36.5397C1.82159 36.8568 1.46768 37.2915 1.2484 37.7963C1.02913 38.3011 0.952932 38.8564 1.02816 39.4016C1.10338 39.9468 1.32713 40.4608 1.67492 40.8874C2.0227 41.3139 2.48111 41.6365 2.99999 41.82V44C2.99999 44.54 3.14999 44.57 5.28999 46.71C5.38323 46.8032 5.49392 46.8772 5.61574 46.9277C5.73756 46.9781 5.86813 47.0041 5.99999 47.0041C6.13185 47.0041 6.26242 46.9781 6.38424 46.9277C6.50606 46.8772 6.61675 46.8032 6.70999 46.71C6.80323 46.6168 6.87719 46.5061 6.92765 46.3843C6.97811 46.2624 7.00408 46.1319 7.00408 46C7.00408 45.8681 6.97811 45.7376 6.92765 45.6157C6.87719 45.4939 6.80323 45.3832 6.70999 45.29L4.99999 43.59V41.82C5.58354 41.6137 6.08899 41.2319 6.44705 40.7271C6.80511 40.2222 6.99825 39.6189 6.99999 39ZM3.99999 38C4.19777 38 4.39111 38.0586 4.55556 38.1685C4.72001 38.2784 4.84818 38.4346 4.92387 38.6173C4.99956 38.8 5.01936 39.0011 4.98077 39.1951C4.94219 39.3891 4.84695 39.5673 4.7071 39.7071C4.56724 39.847 4.38906 39.9422 4.19508 39.9808C4.0011 40.0194 3.80003 39.9996 3.61731 39.9239C3.43458 39.8482 3.2784 39.72 3.16852 39.5556C3.05864 39.3911 2.99999 39.1978 2.99999 39C2.99999 38.7348 3.10535 38.4804 3.29288 38.2929C3.48042 38.1054 3.73477 38 3.99999 38Z" fill="#414141"/>
<path d="M14.9999 25H12.4099L10.6999 23.29C11.0057 22.6515 11.0758 21.9254 10.8978 21.2402C10.7199 20.555 10.3053 19.9547 9.72749 19.5457C9.14966 19.1366 8.44578 18.9451 7.74036 19.005C7.03494 19.0649 6.37343 19.3723 5.87282 19.8729C5.37222 20.3735 5.06479 21.0351 5.0049 21.7405C4.94501 22.4459 5.13652 23.1498 5.54557 23.7276C5.95461 24.3054 6.55483 24.72 7.24006 24.8979C7.92529 25.0759 8.65137 25.0058 9.28989 24.7L11.2899 26.7C11.6799 27.09 11.8099 26.99 14.9999 26.99C15.2651 26.99 15.5195 26.8847 15.707 26.6971C15.8945 26.5096 15.9999 26.2552 15.9999 25.99C15.9999 25.7248 15.8945 25.4704 15.707 25.2829C15.5195 25.0954 15.2651 24.99 14.9999 24.99V25ZM6.99989 22C6.9992 21.8356 7.03908 21.6735 7.11599 21.5281C7.19291 21.3828 7.30449 21.2586 7.44084 21.1667C7.5772 21.0747 7.73413 21.0179 7.89772 21.001C8.06132 20.9842 8.22653 21.0081 8.37872 21.0704C8.53092 21.1327 8.6654 21.2315 8.77026 21.3582C8.87511 21.4849 8.9471 21.6355 8.97985 21.7967C9.0126 21.9578 9.0051 22.1246 8.95801 22.2822C8.91092 22.4397 8.8257 22.5832 8.70989 22.7C8.57062 22.8404 8.39283 22.9364 8.19902 22.9758C8.00521 23.0152 7.80407 22.9962 7.62104 22.9213C7.438 22.8464 7.2813 22.7188 7.17074 22.5549C7.06017 22.3909 7.00072 22.1978 6.99989 22Z" fill="#414141"/>
<path d="M41.18 29H33C32.7348 29 32.4804 29.1054 32.2929 29.2929C32.1054 29.4804 32 29.7348 32 30V34C32 34.2652 32.1054 34.5196 32.2929 34.7071C32.4804 34.8946 32.7348 35 33 35C33.2652 35 33.5196 34.8946 33.7071 34.7071C33.8946 34.5196 34 34.2652 34 34V31H41.18C41.4159 31.6672 41.8801 32.2296 42.4905 32.5876C43.1009 32.9457 43.8182 33.0765 44.5157 32.9568C45.2132 32.8371 45.846 32.4747 46.3021 31.9337C46.7582 31.3926 47.0084 30.7077 47.0084 30C47.0084 29.2923 46.7582 28.6074 46.3021 28.0663C45.846 27.5253 45.2132 27.1629 44.5157 27.0432C43.8182 26.9235 43.1009 27.0543 42.4905 27.4124C41.8801 27.7705 41.4159 28.3328 41.18 29ZM44 29C44.1978 29 44.3911 29.0587 44.5556 29.1685C44.72 29.2784 44.8482 29.4346 44.9239 29.6173C44.9996 29.8 45.0194 30.0011 44.9808 30.1951C44.9422 30.3891 44.847 30.5673 44.7071 30.7071C44.5673 30.847 44.3891 30.9422 44.1951 30.9808C44.0011 31.0194 43.8 30.9996 43.6173 30.9239C43.4346 30.8482 43.2784 30.72 43.1685 30.5556C43.0586 30.3911 43 30.1978 43 30C43 29.7348 43.1054 29.4804 43.2929 29.2929C43.4804 29.1054 43.7348 29 44 29Z" fill="#414141"/>
<path d="M37.9998 33C37.7345 33 37.4802 33.1054 37.2927 33.2929C37.1051 33.4804 36.9998 33.7348 36.9998 34V36.46L34.4498 38.17C34.3122 38.2606 34.1991 38.3838 34.1206 38.5285C34.0421 38.6733 34.0006 38.8353 33.9998 39V41.18C33.3325 41.4159 32.7702 41.8801 32.4121 42.4905C32.0541 43.1009 31.9233 43.8182 32.043 44.5157C32.1626 45.2132 32.525 45.846 33.0661 46.3021C33.6072 46.7582 34.2921 47.0084 34.9998 47.0084C35.7074 47.0084 36.3924 46.7582 36.9334 46.3021C37.4745 45.846 37.8369 45.2132 37.9566 44.5157C38.0762 43.8182 37.9455 43.1009 37.5874 42.4905C37.2293 41.8801 36.667 41.4159 35.9998 41.18V39.54L38.5498 37.83C38.6873 37.7394 38.8004 37.6162 38.8789 37.4715C38.9574 37.3267 38.9989 37.1647 38.9998 37V34C38.9998 33.7348 38.8944 33.4804 38.7069 33.2929C38.5193 33.1054 38.265 33 37.9998 33ZM34.9998 45C34.802 45 34.6086 44.9414 34.4442 44.8315C34.2797 44.7216 34.1516 44.5654 34.0759 44.3827C34.0002 44.2 33.9804 43.9989 34.019 43.8049C34.0576 43.6109 34.1528 43.4327 34.2927 43.2929C34.4325 43.153 34.6107 43.0578 34.8047 43.0192C34.9987 42.9806 35.1997 43.0004 35.3824 43.0761C35.5652 43.1518 35.7214 43.28 35.8312 43.4444C35.9411 43.6089 35.9998 43.8022 35.9998 44C35.9998 44.2652 35.8944 44.5196 35.7069 44.7071C35.5193 44.8946 35.265 45 34.9998 45Z" fill="#414141"/>
<path d="M44 36C43.2964 36.0055 42.6172 36.258 42.081 36.7135C41.5448 37.169 41.1857 37.7985 41.0666 38.4919C40.9474 39.1853 41.0758 39.8985 41.4292 40.5069C41.7826 41.1152 42.3386 41.58 43 41.82V43.59L41.29 45.29C41.1489 45.4299 41.0527 45.6086 41.0137 45.8033C40.9746 45.9981 40.9944 46.2 41.0706 46.3835C41.1468 46.5669 41.2758 46.7235 41.4413 46.8333C41.6069 46.9431 41.8013 47.0012 42 47C42.54 47 42.57 46.85 44.71 44.71C44.8026 44.6166 44.876 44.5057 44.9257 44.3839C44.9755 44.2621 45.0007 44.1316 45 44V41.82C45.6613 41.58 46.2173 41.1152 46.5707 40.5069C46.9241 39.8985 47.0525 39.1853 46.9334 38.4919C46.8142 37.7985 46.4552 37.169 45.9189 36.7135C45.3827 36.258 44.7035 36.0055 44 36ZM44 40C43.8022 40 43.6088 39.9414 43.4444 39.8315C43.2799 39.7216 43.1518 39.5654 43.0761 39.3827C43.0004 39.2 42.9806 38.9989 43.0192 38.8049C43.0578 38.6109 43.153 38.4327 43.2928 38.2929C43.4327 38.153 43.6109 38.0578 43.8049 38.0192C43.9988 37.9806 44.1999 38.0004 44.3826 38.0761C44.5654 38.1518 44.7215 38.28 44.8314 38.4444C44.9413 38.6089 45 38.8022 45 39C45 39.2652 44.8946 39.5196 44.7071 39.7071C44.5195 39.8946 44.2652 40 44 40Z" fill="#414141"/>
<path d="M35.59 25H33C32.7348 25 32.4804 25.1054 32.2929 25.2929C32.1054 25.4804 32 25.7348 32 26C32 26.2652 32.1054 26.5196 32.2929 26.7071C32.4804 26.8947 32.7348 27 33 27H36C36.55 27 36.56 26.85 38.71 24.7C39.3485 25.0058 40.0746 25.0759 40.7598 24.8979C41.4451 24.72 42.0453 24.3054 42.4543 23.7276C42.8634 23.1498 43.0549 22.4459 42.995 21.7405C42.9351 21.0351 42.6277 20.3735 42.1271 19.8729C41.6265 19.3723 40.965 19.0649 40.2595 19.005C39.5541 18.9451 38.8502 19.1366 38.2724 19.5457C37.6946 19.9547 37.28 20.555 37.1021 21.2402C36.9241 21.9254 36.9942 22.6515 37.3 23.29L35.59 25ZM40 21C40.1645 20.9993 40.3265 21.0392 40.4719 21.1161C40.6173 21.193 40.7414 21.3046 40.8333 21.441C40.9253 21.5773 40.9822 21.7342 40.999 21.8978C41.0158 22.0614 40.992 22.2266 40.9297 22.3788C40.8674 22.531 40.7685 22.6655 40.6418 22.7704C40.5151 22.8752 40.3645 22.9472 40.2033 22.98C40.0422 23.0127 39.8754 23.0052 39.7179 22.9581C39.5603 22.911 39.4168 22.8258 39.3 22.71C39.1596 22.5707 39.0636 22.393 39.0242 22.1991C38.9848 22.0053 39.0038 21.8042 39.0787 21.6212C39.1537 21.4381 39.2812 21.2814 39.4452 21.1709C39.6091 21.0603 39.8022 21.0008 40 21Z" fill="#414141"/>
<path d="M28 15H20C19.7348 15 19.4804 14.8946 19.2929 14.7071C19.1054 14.5196 19 14.2652 19 14C19 13.7348 19.1054 13.4804 19.2929 13.2929C19.4804 13.1054 19.7348 13 20 13H28C28.2652 13 28.5196 13.1054 28.7071 13.2929C28.8946 13.4804 29 13.7348 29 14C29 14.2652 28.8946 14.5196 28.7071 14.7071C28.5196 14.8946 28.2652 15 28 15Z" fill="#BEC6C6"/>
<path d="M26 19H22C21.7348 19 21.4804 18.8946 21.2929 18.7071C21.1054 18.5196 21 18.2652 21 18C21 17.7348 21.1054 17.4804 21.2929 17.2929C21.4804 17.1054 21.7348 17 22 17H26C26.2652 17 26.5196 17.1054 26.7071 17.2929C26.8946 17.4804 27 17.7348 27 18C27 18.2652 26.8946 18.5196 26.7071 18.7071C26.5196 18.8946 26.2652 19 26 19Z" fill="#BEC6C6"/>
</g>
<defs>
<clipPath id="clip0_54_380">
<rect width="48" height="48" fill="white"/>
</clipPath>
</defs>
</svg>
