<svg width="25" height="20" viewBox="0 0 25 20" fill="none" xmlns="http://www.w3.org/2000/svg">
<path d="M22.8027 0.859375H2.19727C0.983252 0.859375 0 1.8883 0 3.14453V16.8555C0 18.1192 0.990479 19.1406 2.19727 19.1406H22.8027C24.0066 19.1406 25 18.1235 25 16.8555V3.14453C25 1.89054 24.0207 0.859375 22.8027 0.859375ZM22.495 2.38281C22.0461 2.84721 14.3205 10.8396 14.0537 11.1155C13.6387 11.5472 13.0869 11.7848 12.5 11.7848C11.9131 11.7848 11.3613 11.5471 10.9449 11.1141C10.7655 10.9285 3.12515 3.02438 2.50498 2.38281H22.495ZM1.46484 16.5454V3.45557L7.79482 10.0041L1.46484 16.5454ZM2.50591 17.6172L8.8334 11.0784L9.9105 12.1927C10.6022 12.9121 11.5218 13.3082 12.5 13.3082C13.4782 13.3082 14.3978 12.9121 15.0881 12.1942L16.1666 11.0784L22.4941 17.6172H2.50591ZM23.5352 16.5454L17.2052 10.0041L23.5352 3.45557V16.5454Z" fill="white"/>
</svg>
