<svg width="48" height="48" viewBox="0 0 48 48" fill="none" xmlns="http://www.w3.org/2000/svg">
<path d="M39 20H9C7.89543 20 7 20.8954 7 22V44C7 45.1046 7.89543 46 9 46H39C40.1046 46 41 45.1046 41 44V22C41 20.8954 40.1046 20 39 20Z" fill="#F8F9F9"/>
<path d="M37 15V20H33V15C33 12.6131 32.0518 10.3239 30.364 8.63604C28.6761 6.94821 26.3869 6 24 6C21.6131 6 19.3239 6.94821 17.636 8.63604C15.9482 10.3239 15 12.6131 15 15V20H11V15C11 11.5522 12.3696 8.24558 14.8076 5.80761C17.2456 3.36964 20.5522 2 24 2C27.4478 2 30.7544 3.36964 33.1924 5.80761C35.6304 8.24558 37 11.5522 37 15Z" fill="#BEC6C6"/>
<path d="M39 19H38V15C38 11.287 36.525 7.72601 33.8995 5.1005C31.274 2.475 27.713 1 24 1C20.287 1 16.726 2.475 14.1005 5.1005C11.475 7.72601 10 11.287 10 15V19H9C8.20435 19 7.44129 19.3161 6.87868 19.8787C6.31607 20.4413 6 21.2044 6 22V44C6 44.7957 6.31607 45.5587 6.87868 46.1213C7.44129 46.6839 8.20435 47 9 47H39C39.7957 47 40.5587 46.6839 41.1213 46.1213C41.6839 45.5587 42 44.7957 42 44V22C42 21.2044 41.6839 20.4413 41.1213 19.8787C40.5587 19.3161 39.7957 19 39 19ZM12 15C12 11.8174 13.2643 8.76515 15.5147 6.51472C17.7652 4.26428 20.8174 3 24 3C27.1826 3 30.2348 4.26428 32.4853 6.51472C34.7357 8.76515 36 11.8174 36 15V19H34V15C34 12.3478 32.9464 9.8043 31.0711 7.92893C29.1957 6.05357 26.6522 5 24 5C21.3478 5 18.8043 6.05357 16.9289 7.92893C15.0536 9.8043 14 12.3478 14 15V19H12V15ZM32 19H16V15C16 12.8783 16.8429 10.8434 18.3431 9.34315C19.8434 7.84285 21.8783 7 24 7C26.1217 7 28.1566 7.84285 29.6569 9.34315C31.1571 10.8434 32 12.8783 32 15V19ZM40 44C40 44.2652 39.8946 44.5196 39.7071 44.7071C39.5196 44.8946 39.2652 45 39 45H9C8.73478 45 8.48043 44.8946 8.29289 44.7071C8.10536 44.5196 8 44.2652 8 44V22C8 21.7348 8.10536 21.4804 8.29289 21.2929C8.48043 21.1054 8.73478 21 9 21H39C39.2652 21 39.5196 21.1054 39.7071 21.2929C39.8946 21.4804 40 21.7348 40 22V44Z" fill="#414141"/>
<path d="M45 25H3C2.44772 25 2 25.4477 2 26V34C2 34.5523 2.44772 35 3 35H45C45.5523 35 46 34.5523 46 34V26C46 25.4477 45.5523 25 45 25Z" fill="#4985FF"/>
<path d="M26.6 28.5C26.5347 28.3854 26.4474 28.2849 26.343 28.2042C26.2387 28.1235 26.1194 28.0643 25.992 28.0299C25.8647 27.9955 25.7318 27.9866 25.601 28.0038C25.4703 28.021 25.3442 28.0639 25.23 28.13L25 28.27V28C25 27.7348 24.8947 27.4804 24.7072 27.2929C24.5196 27.1054 24.2653 27 24 27C23.7348 27 23.4805 27.1054 23.2929 27.2929C23.1054 27.4804 23 27.7348 23 28V28.27L22.77 28.13C22.6558 28.0643 22.5297 28.0218 22.3991 28.0049C22.2684 27.9879 22.1356 27.9969 22.0084 28.0313C21.8812 28.0656 21.762 28.1247 21.6576 28.2051C21.5532 28.2856 21.4657 28.3857 21.4 28.5C21.3344 28.6143 21.2919 28.7403 21.2749 28.871C21.258 29.0017 21.267 29.1344 21.3013 29.2616C21.3357 29.3888 21.3947 29.508 21.4752 29.6124C21.5556 29.7168 21.6558 29.8043 21.77 29.87L22 30L21.77 30.13C21.6558 30.1957 21.5556 30.2832 21.4752 30.3876C21.3947 30.492 21.3357 30.6112 21.3013 30.7384C21.267 30.8656 21.258 30.9983 21.2749 31.129C21.2919 31.2597 21.3344 31.3857 21.4 31.5C21.5327 31.7307 21.7515 31.8993 22.0084 31.9687C22.1356 32.0031 22.2684 32.0121 22.3991 31.9951C22.5297 31.9782 22.6558 31.9357 22.77 31.87L23 31.73V32C23 32.2652 23.1054 32.5196 23.2929 32.7071C23.4805 32.8946 23.7348 33 24 33C24.2653 33 24.5196 32.8946 24.7072 32.7071C24.8947 32.5196 25 32.2652 25 32V31.73L25.23 31.87C25.3442 31.9361 25.4703 31.979 25.601 31.9962C25.7318 32.0134 25.8647 32.0045 25.992 31.9701C26.1194 31.9357 26.2387 31.8765 26.343 31.7958C26.4474 31.7151 26.5347 31.6146 26.6 31.5C26.6662 31.3859 26.7091 31.2598 26.7262 31.129C26.7434 30.9982 26.7346 30.8653 26.7002 30.738C26.6658 30.6107 26.6065 30.4914 26.5258 30.387C26.4452 30.2827 26.3446 30.1953 26.23 30.13L26 30L26.23 29.87C26.3446 29.8047 26.4452 29.7173 26.5258 29.613C26.6065 29.5086 26.6658 29.3893 26.7002 29.262C26.7346 29.1347 26.7434 29.0018 26.7262 28.871C26.7091 28.7402 26.6662 28.6141 26.6 28.5Z" fill="#F8F9F9"/>
<path d="M34.6 28.5C34.5347 28.3854 34.4474 28.2849 34.343 28.2042C34.2387 28.1235 34.1194 28.0643 33.9921 28.0299C33.8647 27.9955 33.7318 27.9866 33.601 28.0038C33.4703 28.021 33.3442 28.0639 33.23 28.13L33 28.27V28C33 27.7348 32.8947 27.4804 32.7072 27.2929C32.5196 27.1054 32.2653 27 32 27C31.7348 27 31.4805 27.1054 31.2929 27.2929C31.1054 27.4804 31 27.7348 31 28V28.27L30.77 28.13C30.5393 27.9974 30.2653 27.9619 30.0084 28.0313C29.7515 28.1007 29.5327 28.2693 29.4 28.5C29.2674 28.7307 29.2319 29.0047 29.3013 29.2616C29.3707 29.5186 29.5393 29.7374 29.77 29.87L30 30L29.77 30.13C29.5393 30.2626 29.3707 30.4814 29.3013 30.7384C29.2319 30.9953 29.2674 31.2693 29.4 31.5C29.5327 31.7307 29.7515 31.8993 30.0084 31.9687C30.2653 32.0381 30.5393 32.0026 30.77 31.87L31 31.73V32C31 32.2652 31.1054 32.5196 31.2929 32.7071C31.4805 32.8946 31.7348 33 32 33C32.2653 33 32.5196 32.8946 32.7072 32.7071C32.8947 32.5196 33 32.2652 33 32V31.73L33.23 31.87C33.3442 31.9361 33.4703 31.979 33.601 31.9962C33.7318 32.0134 33.8647 32.0045 33.9921 31.9701C34.1194 31.9357 34.2387 31.8765 34.343 31.7958C34.4474 31.7151 34.5347 31.6146 34.6 31.5C34.6662 31.3859 34.7091 31.2598 34.7262 31.129C34.7434 30.9982 34.7346 30.8653 34.7002 30.738C34.6658 30.6107 34.6065 30.4914 34.5259 30.387C34.4452 30.2827 34.3446 30.1953 34.23 30.13L34 30L34.23 29.87C34.3446 29.8047 34.4452 29.7173 34.5259 29.613C34.6065 29.5086 34.6658 29.3893 34.7002 29.262C34.7346 29.1347 34.7434 29.0018 34.7262 28.871C34.7091 28.7402 34.6662 28.6141 34.6 28.5Z" fill="#F8F9F9"/>
<path d="M42.2299 30.13L41.9999 30L42.2299 29.87C42.4607 29.7374 42.6293 29.5186 42.6987 29.2616C42.7681 29.0047 42.7325 28.7307 42.5999 28.5C42.5343 28.3857 42.4468 28.2856 42.3424 28.2051C42.238 28.1247 42.1188 28.0656 41.9916 28.0313C41.7346 27.9619 41.4607 27.9974 41.2299 28.13L40.9999 28.27V28C40.9999 27.7348 40.8946 27.4804 40.707 27.2929C40.5195 27.1054 40.2651 27 39.9999 27C39.7347 27 39.4804 27.1054 39.2928 27.2929C39.1053 27.4804 38.9999 27.7348 38.9999 28V28.27L38.7699 28.13C38.5392 27.9974 38.2652 27.9619 38.0083 28.0313C37.7514 28.1007 37.5325 28.2693 37.3999 28.5C37.2673 28.7307 37.2318 29.0047 37.3012 29.2616C37.3706 29.5186 37.5392 29.7374 37.7699 29.87L37.9999 30L37.7699 30.13C37.5773 30.2392 37.4263 30.4092 37.3407 30.6134C37.2551 30.8176 37.2397 31.0444 37.2969 31.2583C37.3541 31.4722 37.4806 31.6611 37.6567 31.7953C37.8328 31.9296 38.0485 32.0015 38.2699 32C38.535 31.986 38.7896 31.8919 38.9999 31.73V32C38.9999 32.2652 39.1053 32.5196 39.2928 32.7071C39.4804 32.8946 39.7347 33 39.9999 33C40.2651 33 40.5195 32.8946 40.707 32.7071C40.8946 32.5196 40.9999 32.2652 40.9999 32V31.73C41.2123 31.8882 41.4657 31.9819 41.7299 32C41.9513 32.0015 42.167 31.9296 42.3431 31.7953C42.5192 31.6611 42.6458 31.4722 42.703 31.2583C42.7602 31.0444 42.7448 30.8176 42.6591 30.6134C42.5735 30.4092 42.4226 30.2392 42.2299 30.13Z" fill="#F8F9F9"/>
<path d="M18.6 28.5C18.5347 28.3854 18.4474 28.2849 18.343 28.2042C18.2387 28.1235 18.1194 28.0643 17.992 28.0299C17.8647 27.9955 17.7318 27.9866 17.601 28.0038C17.4703 28.021 17.3442 28.0639 17.23 28.13L17 28.27V28C17 27.7348 16.8947 27.4804 16.7072 27.2929C16.5196 27.1054 16.2653 27 16 27C15.7348 27 15.4805 27.1054 15.2929 27.2929C15.1054 27.4804 15 27.7348 15 28V28.27L14.77 28.13C14.6558 28.0643 14.5297 28.0218 14.3991 28.0049C14.2684 27.9879 14.1356 27.9969 14.0084 28.0313C13.8812 28.0656 13.762 28.1247 13.6576 28.2051C13.5532 28.2856 13.4657 28.3857 13.4 28.5C13.3344 28.6143 13.2919 28.7403 13.2749 28.871C13.258 29.0017 13.267 29.1344 13.3013 29.2616C13.3357 29.3888 13.3947 29.508 13.4752 29.6124C13.5556 29.7168 13.6558 29.8043 13.77 29.87L14 30L13.77 30.13C13.6558 30.1957 13.5556 30.2832 13.4752 30.3876C13.3947 30.492 13.3357 30.6112 13.3013 30.7384C13.267 30.8656 13.258 30.9983 13.2749 31.129C13.2919 31.2597 13.3344 31.3857 13.4 31.5C13.4657 31.6143 13.5532 31.7144 13.6576 31.7949C13.762 31.8753 13.8812 31.9344 14.0084 31.9687C14.2653 32.0381 14.5393 32.0026 14.77 31.87L15 31.73V32C15 32.2652 15.1054 32.5196 15.2929 32.7071C15.4805 32.8946 15.7348 33 16 33C16.2653 33 16.5196 32.8946 16.7072 32.7071C16.8947 32.5196 17 32.2652 17 32V31.73L17.23 31.87C17.3443 31.9357 17.4704 31.9782 17.601 31.9951C17.7317 32.0121 17.8645 32.0031 17.9917 31.9687C18.1189 31.9344 18.2381 31.8753 18.3425 31.7949C18.4469 31.7144 18.5344 31.6143 18.6 31.5C18.6657 31.3857 18.7082 31.2597 18.7252 31.129C18.7421 30.9983 18.7331 30.8656 18.6988 30.7384C18.6644 30.6112 18.6053 30.492 18.5249 30.3876C18.4445 30.2832 18.3443 30.1957 18.23 30.13L18 30L18.23 29.87C18.3446 29.8047 18.4452 29.7173 18.5258 29.613C18.6065 29.5086 18.6658 29.3893 18.7002 29.262C18.7346 29.1347 18.7434 29.0018 18.7262 28.871C18.7091 28.7402 18.6662 28.6141 18.6 28.5Z" fill="#F8F9F9"/>
<path d="M10.6 28.5C10.5347 28.3854 10.4474 28.2849 10.343 28.2042C10.2387 28.1235 10.1194 28.0643 9.99205 28.0299C9.86471 27.9955 9.73183 27.9866 9.60105 28.0038C9.47027 28.021 9.34418 28.0639 9.23005 28.13L9.00005 28.27V28C9.00005 27.7348 8.89469 27.4804 8.70715 27.2929C8.51962 27.1054 8.26526 27 8.00005 27C7.73483 27 7.48048 27.1054 7.29294 27.2929C7.1054 27.4804 7.00005 27.7348 7.00005 28V28.27L6.77005 28.13C6.53931 27.9974 6.26534 27.9619 6.00842 28.0313C5.75149 28.1007 5.53266 28.2693 5.40005 28.5C5.26744 28.7307 5.23192 29.0047 5.30131 29.2616C5.3707 29.5186 5.53931 29.7374 5.77005 29.87L6.00005 30L5.77005 30.13C5.53931 30.2626 5.3707 30.4814 5.30131 30.7384C5.23192 30.9953 5.26744 31.2693 5.40005 31.5C5.53266 31.7307 5.75149 31.8993 6.00842 31.9687C6.26534 32.0381 6.53931 32.0026 6.77005 31.87L7.00005 31.73V32C7.00005 32.2652 7.1054 32.5196 7.29294 32.7071C7.48048 32.8946 7.73483 33 8.00005 33C8.26526 33 8.51962 32.8946 8.70715 32.7071C8.89469 32.5196 9.00005 32.2652 9.00005 32V31.73L9.23005 31.87C9.46079 32.0026 9.73475 32.0381 9.99168 31.9687C10.2486 31.8993 10.4674 31.7307 10.6 31.5C10.7327 31.2693 10.7682 30.9953 10.6988 30.7384C10.6294 30.4814 10.4608 30.2626 10.23 30.13L10 30L10.23 29.87C10.3446 29.8047 10.4452 29.7173 10.5259 29.613C10.6065 29.5086 10.6658 29.3893 10.7002 29.262C10.7346 29.1347 10.7434 29.0018 10.7262 28.871C10.7091 28.7402 10.6662 28.6141 10.6 28.5Z" fill="#F8F9F9"/>
<path d="M13 38H11C10.4477 38 10 38.4477 10 39V41C10 41.5523 10.4477 42 11 42H13C13.5523 42 14 41.5523 14 41V39C14 38.4477 13.5523 38 13 38Z" fill="#BEC6C6"/>
<path d="M19 38H17C16.4477 38 16 38.4477 16 39V41C16 41.5523 16.4477 42 17 42H19C19.5523 42 20 41.5523 20 41V39C20 38.4477 19.5523 38 19 38Z" fill="#BEC6C6"/>
<path d="M25 38H23C22.4477 38 22 38.4477 22 39V41C22 41.5523 22.4477 42 23 42H25C25.5523 42 26 41.5523 26 41V39C26 38.4477 25.5523 38 25 38Z" fill="#BEC6C6"/>
<path d="M31 38H29C28.4477 38 28 38.4477 28 39V41C28 41.5523 28.4477 42 29 42H31C31.5523 42 32 41.5523 32 41V39C32 38.4477 31.5523 38 31 38Z" fill="#BEC6C6"/>
<path d="M37 38H35C34.4477 38 34 38.4477 34 39V41C34 41.5523 34.4477 42 35 42H37C37.5523 42 38 41.5523 38 41V39C38 38.4477 37.5523 38 37 38Z" fill="#BEC6C6"/>
</svg>
