<svg width="16" height="16" viewBox="0 0 16 16" fill="none" xmlns="http://www.w3.org/2000/svg">
<path fill-rule="evenodd" clip-rule="evenodd" d="M5.93942 8.64654L3.69217 7.89746L3.69217 7.89746L3.69216 7.89746C1.33896 7.11306 0.162354 6.72085 0.162354 6.0001C0.162354 5.27934 1.33896 4.88713 3.69218 4.10273L12.2053 1.26501C13.8611 0.713077 14.689 0.437112 15.126 0.874128C15.5631 1.31114 15.2871 2.13904 14.7352 3.79483L11.8974 12.308L11.8974 12.308L11.8974 12.308C11.113 14.6612 10.7208 15.8378 10.0001 15.8378C9.27932 15.8378 8.88711 14.6612 8.10271 12.308L7.35363 10.0608L11.7072 5.7072C12.0977 5.31668 12.0977 4.68351 11.7072 4.29299C11.3167 3.90247 10.6835 3.90247 10.293 4.29299L5.93942 8.64654Z" fill="#222222"/>
</svg>
