<svg width="48" height="48" viewBox="0 0 48 48" fill="none" xmlns="http://www.w3.org/2000/svg">
<path d="M44 2H4C2.89543 2 2 2.89543 2 4V38C2 39.1046 2.89543 40 4 40H44C45.1046 40 46 39.1046 46 38V4C46 2.89543 45.1046 2 44 2Z" fill="#F8F9F9"/>
<path d="M46 8H2V4C2 3.46957 2.21071 2.96086 2.58579 2.58579C2.96086 2.21071 3.46957 2 4 2H16L17 5H46V8Z" fill="#BEC6C6"/>
<path d="M44 1H4C3.20435 1 2.44129 1.31607 1.87868 1.87868C1.31607 2.44129 1 3.20435 1 4V38C1 38.7957 1.31607 39.5587 1.87868 40.1213C2.44129 40.6839 3.20435 41 4 41H44C44.7957 41 45.5587 40.6839 46.1213 40.1213C46.6839 39.5587 47 38.7957 47 38V4C47 3.20435 46.6839 2.44129 46.1213 1.87868C45.5587 1.31607 44.7957 1 44 1ZM4 3H44C44.2652 3 44.5196 3.10536 44.7071 3.29289C44.8946 3.48043 45 3.73478 45 4V7H3V4C3 3.73478 3.10536 3.48043 3.29289 3.29289C3.48043 3.10536 3.73478 3 4 3ZM44 39H4C3.73478 39 3.48043 38.8946 3.29289 38.7071C3.10536 38.5196 3 38.2652 3 38V9H45V38C45 38.2652 44.8946 38.5196 44.7071 38.7071C44.5196 38.8946 44.2652 39 44 39Z" fill="#414141"/>
<path d="M20.4101 23.59L16.4101 19.59C17.0198 18.3128 17.1583 16.8612 16.8013 15.4917C16.4443 14.1222 15.6146 12.9229 14.459 12.106C13.3033 11.289 11.8961 10.9068 10.4859 11.0269C9.07577 11.1471 7.75348 11.7619 6.75273 12.7626C5.75198 13.7634 5.1372 15.0857 5.01704 16.4958C4.89687 17.906 5.27906 19.3132 6.09605 20.4689C6.91304 21.6245 8.11225 22.4542 9.48175 22.8112C10.8513 23.1682 12.3029 23.0297 13.5801 22.42L17.5801 26.42C17.7594 26.6294 17.98 26.7994 18.2282 26.9194C18.4763 27.0395 18.7465 27.107 19.022 27.1176C19.2974 27.1282 19.5721 27.0818 19.8287 26.9813C20.0854 26.8807 20.3185 26.7282 20.5134 26.5333C20.7083 26.3384 20.8608 26.1053 20.9614 25.8486C21.0619 25.592 21.1083 25.3173 21.0977 25.0419C21.087 24.7664 21.0196 24.4962 20.8995 24.2481C20.7795 23.9999 20.6095 23.7793 20.4001 23.6L20.4101 23.59ZM7.00009 17C7.00009 16.2089 7.23469 15.4355 7.67421 14.7777C8.11374 14.1199 8.73845 13.6072 9.46936 13.3045C10.2003 13.0017 11.0045 12.9225 11.7805 13.0769C12.5564 13.2312 13.2691 13.6122 13.8285 14.1716C14.3879 14.731 14.7689 15.4437 14.9232 16.2196C15.0776 16.9956 14.9984 17.7998 14.6956 18.5307C14.3929 19.2616 13.8802 19.8863 13.2224 20.3259C12.5646 20.7654 11.7912 21 11.0001 21C9.93923 21 8.92181 20.5786 8.17166 19.8284C7.42152 19.0783 7.00009 18.0609 7.00009 17Z" fill="#BEC6C6"/>
<path d="M33 47C30.3794 46.1252 28.1002 44.4484 26.485 42.207C24.8699 39.9655 24.0005 37.2728 24 34.51V26C25.5391 26.3076 27.1303 26.2303 28.6324 25.775C30.1344 25.3197 31.5008 24.5004 32.61 23.39L33 23L33.39 23.39C34.4982 24.5019 35.8645 25.3222 37.3668 25.7776C38.8692 26.233 40.4609 26.3094 42 26V34.51C41.9995 37.2728 41.1301 39.9655 39.515 42.207C37.8998 44.4484 35.6206 46.1252 33 47Z" fill="#4985FF"/>
<path d="M32 13H24C23.7348 13 23.4804 12.8946 23.2929 12.7071C23.1054 12.5196 23 12.2652 23 12C23 11.7348 23.1054 11.4804 23.2929 11.2929C23.4804 11.1054 23.7348 11 24 11H32C32.2652 11 32.5196 11.1054 32.7071 11.2929C32.8946 11.4804 33 11.7348 33 12C33 12.2652 32.8946 12.5196 32.7071 12.7071C32.5196 12.8946 32.2652 13 32 13Z" fill="#BEC6C6"/>
<path d="M42 17H24C23.7348 17 23.4804 16.8946 23.2929 16.7071C23.1054 16.5196 23 16.2652 23 16C23 15.7348 23.1054 15.4804 23.2929 15.2929C23.4804 15.1054 23.7348 15 24 15H42C42.2652 15 42.5196 15.1054 42.7071 15.2929C42.8946 15.4804 43 15.7348 43 16C43 16.2652 42.8946 16.5196 42.7071 16.7071C42.5196 16.8946 42.2652 17 42 17Z" fill="#BEC6C6"/>
<path d="M42 21H24C23.7348 21 23.4804 20.8946 23.2929 20.7071C23.1054 20.5196 23 20.2652 23 20C23 19.7348 23.1054 19.4804 23.2929 19.2929C23.4804 19.1054 23.7348 19 24 19H42C42.2652 19 42.5196 19.1054 42.7071 19.2929C42.8946 19.4804 43 19.7348 43 20C43 20.2652 42.8946 20.5196 42.7071 20.7071C42.5196 20.8946 42.2652 21 42 21Z" fill="#BEC6C6"/>
<path d="M20 32H6C5.73478 32 5.48043 31.8946 5.29289 31.7071C5.10536 31.5196 5 31.2652 5 31C5 30.7348 5.10536 30.4804 5.29289 30.2929C5.48043 30.1054 5.73478 30 6 30H20C20.2652 30 20.5196 30.1054 20.7071 30.2929C20.8946 30.4804 21 30.7348 21 31C21 31.2652 20.8946 31.5196 20.7071 31.7071C20.5196 31.8946 20.2652 32 20 32Z" fill="#BEC6C6"/>
<path d="M9 36H6C5.73478 36 5.48043 35.8946 5.29289 35.7071C5.10536 35.5196 5 35.2652 5 35C5 34.7348 5.10536 34.4804 5.29289 34.2929C5.48043 34.1054 5.73478 34 6 34H9C9.26522 34 9.51957 34.1054 9.70711 34.2929C9.89464 34.4804 10 34.7348 10 35C10 35.2652 9.89464 35.5196 9.70711 35.7071C9.51957 35.8946 9.26522 36 9 36Z" fill="#BEC6C6"/>
<path d="M20 36H13C12.7348 36 12.4804 35.8946 12.2929 35.7071C12.1054 35.5196 12 35.2652 12 35C12 34.7348 12.1054 34.4804 12.2929 34.2929C12.4804 34.1054 12.7348 34 13 34H20C20.2652 34 20.5196 34.1054 20.7071 34.2929C20.8946 34.4804 21 34.7348 21 35C21 35.2652 20.8946 35.5196 20.7071 35.7071C20.5196 35.8946 20.2652 36 20 36Z" fill="#BEC6C6"/>
</svg>
