<svg width="110" height="110" viewBox="0 0 110 110" fill="none" xmlns="http://www.w3.org/2000/svg">
<circle cx="55" cy="54" r="44.5" stroke="#292D32"/>
<circle cx="55" cy="55" r="54.5" stroke="#E0E0E0"/>
<path d="M68.19 55.5056C67.8924 55.5056 67.5948 55.3791 67.3343 55.1009C59.838 47.2348 50.1468 47.2348 42.6505 55.1009C42.0366 55.7332 41.1624 55.5815 40.6974 54.7721C40.2323 53.9374 40.3439 52.7486 40.9392 52.1163C49.4772 43.1373 60.5077 43.1373 69.0271 52.1163C69.6409 52.7486 69.7525 53.9374 69.2689 54.7721C69.0271 55.2527 68.6178 55.5056 68.19 55.5056Z" fill="#292D32"/>
<path d="M73.6013 46.7035C73.3036 46.7035 73.006 46.577 72.7456 46.2988C61.9569 34.9675 48.0245 34.9675 37.2544 46.2988C36.6406 46.9311 35.7663 46.7794 35.3013 45.97C34.8176 45.1606 34.9292 43.9465 35.5431 43.3142C47.3549 30.8953 62.6265 30.8953 74.4569 43.3142C75.0708 43.9465 75.1824 45.1353 74.6987 45.97C74.4383 46.4506 74.0105 46.7035 73.6013 46.7035Z" fill="#292D32"/>
<path d="M64.6906 64.7448C64.393 64.7448 64.0953 64.6184 63.8349 64.3401C58.4777 58.6998 51.5395 58.6998 46.1637 64.3401C45.5498 64.9725 44.6756 64.8207 44.2105 64.0113C43.7455 63.1767 43.8571 61.9879 44.4524 61.3556C50.8512 54.6276 59.1288 54.6276 65.5276 61.3556C66.1415 61.9879 66.2531 63.1767 65.7694 64.0113C65.509 64.4919 65.0998 64.7448 64.6906 64.7448Z" fill="#292D32"/>
<path d="M59.8347 74C59.5371 74 59.2395 73.8735 58.9791 73.5953C56.5609 71.0407 53.4173 71.0407 50.9991 73.5953C50.3853 74.2276 49.511 74.0759 49.046 73.2665C48.581 72.4318 48.6926 71.243 49.2878 70.6107C52.7477 66.9685 57.212 66.9685 60.6718 70.6107C61.2856 71.243 61.3972 72.4318 60.9136 73.2665C60.6718 73.7217 60.2626 74 59.8347 74Z" fill="#292D32"/>
</svg>
