<?xml version="1.0" standalone="no"?>
<!DOCTYPE svg PUBLIC "-//W3C//DTD SVG 20010904//EN"
 "http://www.w3.org/TR/2001/REC-SVG-20010904/DTD/svg10.dtd">
<svg version="1.0" xmlns="http://www.w3.org/2000/svg"
 width="512.000000pt" height="512.000000pt" viewBox="0 0 512.000000 512.000000"
 preserveAspectRatio="xMidYMid meet">

<style>
  path {
    fill: #000
  }

  @media (prefers-color-scheme: dark) {
    path {
        fill: #fff;
    }
  }

</style>

<g transform="translate(0.000000,512.000000) scale(0.100000,-0.100000)"
fill="#000" stroke="none">
<path d="M681 4304 c-169 -45 -301 -180 -346 -351 -23 -87 -22 -2700 0 -2788
45 -172 179 -305 352 -350 50 -13 295 -15 1864 -15 1160 0 1826 4 1860 10 183
34 344 195 379 379 6 35 10 520 10 1380 0 1159 -2 1334 -15 1386 -45 172 -179
305 -352 350 -85 22 -3669 21 -3752 -1z m3725 -330 c15 -11 37 -33 48 -48 21
-27 21 -30 21 -1366 0 -1336 0 -1339 -21 -1366 -11 -15 -33 -37 -48 -48 l-27
-21 -1819 0 -1819 0 -27 21 c-15 11 -37 33 -48 48 -21 27 -21 32 -24 1339 -1
722 0 1326 3 1344 7 40 49 91 90 109 25 11 350 13 1837 11 l1807 -2 27 -21z"/>
<path d="M1245 3461 c-70 -17 -125 -84 -125 -152 0 -73 28 -103 361 -389 420
-361 389 -331 389 -372 0 -43 -1 -44 -395 -382 -320 -274 -355 -312 -355 -380
0 -40 34 -107 67 -130 31 -23 116 -32 153 -18 28 11 695 581 749 640 87 95
123 252 86 377 -30 104 -68 149 -290 341 -115 98 -269 232 -344 297 -192 168
-223 186 -296 168z"/>
<path d="M2815 1906 c-67 -29 -105 -106 -91 -181 9 -47 59 -102 104 -115 25
-8 209 -10 554 -8 504 3 517 4 544 24 53 39 69 71 69 134 0 63 -16 95 -69 134
-27 21 -40 21 -554 23 -423 2 -533 0 -557 -11z"/>
</g>
</svg>
