<svg version="1.1" id="isr-labs-logo" xmlns="http://www.w3.org/2000/svg" xmlns:xlink="http://www.w3.org/1999/xlink" x="100px" y="100px"
	 width="100%" viewBox="0 0 1024 1024" enable-background="new 0 0 1024 1024" xml:space="preserve">
<path fill="rgba(0,0,0, 0)" opacity="1.000000" stroke="none" 
	d="
M677.000000,1025.000000 
	C451.333344,1025.000000 226.166672,1025.000000 1.000000,1025.000000 
	C1.000000,683.666687 1.000000,342.333344 1.000000,1.000000 
	C342.333344,1.000000 683.666687,1.000000 1025.000000,1.000000 
	C1025.000000,342.333344 1025.000000,683.666687 1025.000000,1025.000000 
	C909.166687,1025.000000 793.333313,1025.000000 677.000000,1025.000000 
M703.293091,557.178223 
	C686.427856,513.672180 658.283020,479.402924 618.654663,454.806366 
	C607.104370,447.637329 594.671692,441.903290 582.968750,434.963074 
	C571.248779,428.012726 563.757080,418.248993 564.661438,403.613281 
	C565.040955,397.470642 564.735352,391.285339 564.732300,385.119446 
	C564.714905,350.124176 564.770752,315.128571 564.598511,280.134033 
	C564.570740,274.485138 566.130798,270.310150 570.996643,267.102264 
	C575.568481,264.088257 579.668884,260.365753 584.038147,257.035706 
	C587.591858,254.327255 589.658203,251.031845 589.037537,246.366608 
	C588.162659,239.790039 587.344177,233.205261 586.592590,226.613617 
	C586.455139,225.408035 586.265076,223.550003 586.925598,223.016739 
	C591.905212,218.996979 591.017395,213.535751 590.873108,208.266464 
	C590.685730,201.420013 588.178467,198.975113 581.420654,198.974579 
	C565.589172,198.973328 549.757751,199.025635 533.926270,199.033310 
	C504.262970,199.047699 474.598785,198.949738 444.937775,199.213623 
	C442.254791,199.237503 437.629822,201.154297 437.284607,202.871201 
	C436.210175,208.215012 434.822723,214.986145 437.183502,219.144806 
	C439.993805,224.095291 439.841156,227.989197 439.075104,232.830368 
	C438.322693,237.585312 437.589111,242.484818 437.977112,247.228485 
	C438.232727,250.353912 439.792480,254.016617 441.995148,256.202362 
	C446.337158,260.511047 451.462372,264.053680 456.397064,267.734314 
	C460.164612,270.544464 461.860809,273.988525 461.852875,278.794739 
	C461.782562,321.289490 461.984161,363.785095 461.758392,406.278625 
	C461.733917,410.883331 460.196289,415.805756 458.171753,420.008057 
	C453.590576,429.517151 444.537018,434.019318 435.730286,438.926636 
	C421.120972,447.067261 406.009247,454.684418 392.619171,464.567780 
	C342.059875,501.886139 313.453857,552.297546 308.349426,614.957581 
	C304.667633,660.153931 315.015259,702.649780 339.438263,741.135864 
	C384.348663,811.906067 462.800049,847.921692 546.034668,834.762512 
	C587.226624,828.250061 623.045105,810.133301 652.865051,780.834045 
	C693.332458,741.073242 715.235657,692.923828 717.031189,635.995361 
	C717.880310,609.075806 713.033691,583.072449 703.293091,557.178223 
M624.758728,375.012573 
	C627.808228,376.830078 630.696472,376.797638 631.935608,373.133698 
	C632.409546,371.732483 631.483521,369.200104 630.323486,368.118103 
	C629.442200,367.296112 626.141602,367.359772 625.737427,368.067963 
	C624.693909,369.896362 624.658813,372.300232 624.758728,375.012573 
M649.488159,429.910126 
	C652.833618,429.267761 654.091919,427.035828 652.828430,424.137543 
	C652.331116,422.996796 650.024170,422.170166 648.514465,422.126404 
	C647.630493,422.100830 645.779175,424.137451 645.959167,424.833618 
	C646.421936,426.623444 647.774902,428.183167 649.488159,429.910126 
M687.528870,493.822845 
	C687.628662,491.956055 688.023438,490.021576 687.621338,488.269989 
	C687.520569,487.830841 684.408813,487.360596 683.497375,488.024872 
	C682.507629,488.746216 681.665039,491.489960 682.189331,492.079803 
	C683.201477,493.218506 685.219666,493.462982 687.528870,493.822845 
M437.821503,392.287201 
	C439.458130,393.160950 441.033539,394.273102 442.779419,394.721100 
	C443.159912,394.818756 444.916931,392.341431 444.673340,391.405914 
	C444.336273,390.111389 442.363678,388.064178 441.696686,388.272919 
	C440.185394,388.745911 439.044220,390.401642 437.821503,392.287201 
M413.783264,348.165527 
	C412.140198,348.693176 410.423828,349.085632 408.933044,349.894104 
	C408.709412,350.015442 409.203461,352.509247 409.983032,353.130066 
	C410.731537,353.726135 413.083771,353.733246 413.327484,353.266327 
	C414.009460,351.959778 413.965607,350.274384 413.783264,348.165527 
M591.322632,338.600189 
	C591.319763,340.172516 591.076050,341.808319 591.463013,343.277985 
	C591.576965,343.710876 593.863953,344.185272 594.463623,343.730042 
	C595.322998,343.077545 596.253784,340.967316 595.909180,340.576111 
	C594.934448,339.469574 593.326172,338.921112 591.322632,338.600189 
z"/>
<path fill="#F8F8F8" opacity="1.000000" stroke="none" 
	d="
M703.464844,557.528809 
	C713.033691,583.072449 717.880310,609.075806 717.031189,635.995361 
	C715.235657,692.923828 693.332458,741.073242 652.865051,780.834045 
	C623.045105,810.133301 587.226624,828.250061 546.034668,834.762512 
	C462.800049,847.921692 384.348663,811.906067 339.438263,741.135864 
	C315.015259,702.649780 304.667633,660.153931 308.349426,614.957581 
	C313.453857,552.297546 342.059875,501.886139 392.619171,464.567780 
	C406.009247,454.684418 421.120972,447.067261 435.730286,438.926636 
	C444.537018,434.019318 453.590576,429.517151 458.171753,420.008057 
	C460.196289,415.805756 461.733917,410.883331 461.758392,406.278625 
	C461.984161,363.785095 461.782562,321.289490 461.852875,278.794739 
	C461.860809,273.988525 460.164612,270.544464 456.397064,267.734314 
	C451.462372,264.053680 446.337158,260.511047 441.995148,256.202362 
	C439.792480,254.016617 438.232727,250.353912 437.977112,247.228485 
	C437.589111,242.484818 438.322693,237.585312 439.075104,232.830368 
	C439.841156,227.989197 439.993805,224.095291 437.183502,219.144806 
	C434.822723,214.986145 436.210175,208.215012 437.284607,202.871201 
	C437.629822,201.154297 442.254791,199.237503 444.937775,199.213623 
	C474.598785,198.949738 504.262970,199.047699 533.926270,199.033310 
	C549.757751,199.025635 565.589172,198.973328 581.420654,198.974579 
	C588.178467,198.975113 590.685730,201.420013 590.873108,208.266464 
	C591.017395,213.535751 591.905212,218.996979 586.925598,223.016739 
	C586.265076,223.550003 586.455139,225.408035 586.592590,226.613617 
	C587.344177,233.205261 588.162659,239.790039 589.037537,246.366608 
	C589.658203,251.031845 587.591858,254.327255 584.038147,257.035706 
	C579.668884,260.365753 575.568481,264.088257 570.996643,267.102264 
	C566.130798,270.310150 564.570740,274.485138 564.598511,280.134033 
	C564.770752,315.128571 564.714905,350.124176 564.732300,385.119446 
	C564.735352,391.285339 565.040955,397.470642 564.661438,403.613281 
	C563.757080,418.248993 571.248779,428.012726 582.968750,434.963074 
	C594.671692,441.903290 607.104370,447.637329 618.654663,454.806366 
	C658.283020,479.402924 686.427856,513.672180 703.464844,557.528809 
M406.430206,477.916504 
	C400.093201,483.032318 393.355347,487.727905 387.482300,493.330078 
	C338.076630,540.457336 318.632629,597.988342 329.640839,665.262024 
	C336.128632,704.910461 354.924866,738.682922 383.892303,766.362915 
	C433.125214,813.407471 491.548187,828.200806 557.482300,813.106873 
	C593.164490,804.938416 622.856567,785.823792 647.430786,758.955994 
	C687.397156,715.259521 704.575073,663.565735 696.513184,605.030579 
	C688.279968,545.251587 656.300720,500.003265 605.068115,468.461456 
	C594.909058,462.206970 583.713013,457.656738 573.398865,451.629791 
	C555.053955,440.910004 543.903076,425.694153 544.776245,403.322388 
	C545.146362,393.839844 544.786377,384.328918 544.763123,374.830872 
	C544.755188,371.580353 544.761902,368.329773 544.761902,365.159851 
	C523.592957,365.159851 503.155640,365.159851 482.231476,365.159851 
	C482.231476,378.229858 482.299347,391.021362 482.191193,403.811401 
	C482.157654,407.779297 482.119934,411.847504 481.272583,415.690887 
	C477.426575,433.134705 466.471283,444.904663 451.040283,453.171814 
	C436.260345,461.090240 421.664246,469.351776 406.430206,477.916504 
M521.500000,305.983490 
	C529.117310,305.983490 536.734558,305.983490 544.248047,305.983490 
	C544.248047,293.025238 544.248047,280.519623 544.248047,268.232971 
	C523.385925,268.232971 502.984680,268.232971 482.623474,268.232971 
	C482.623474,281.030273 482.623474,293.422211 482.623474,305.984406 
	C495.529480,305.984406 508.014740,305.984406 521.500000,305.983490 
M483.920410,255.869629 
	C485.121521,258.521729 486.872620,259.663544 490.078033,259.610199 
	C505.551056,259.352814 521.031311,259.524292 536.503906,259.252075 
	C538.360046,259.219421 540.643982,257.822479 541.944641,256.359863 
	C547.449341,250.169754 552.552063,243.623306 558.021851,237.400604 
	C560.444702,234.644318 563.390747,232.347931 566.750793,229.240173 
	C530.587341,229.240173 495.481781,229.240173 460.725525,229.240173 
	C468.319489,237.934067 475.886108,246.596680 483.920410,255.869629 
M549.500000,212.997452 
	C560.598145,212.997452 571.696289,212.997452 583.039856,212.997452 
	C582.832581,209.897278 582.669495,207.458832 582.502258,204.958054 
	C536.214294,204.958054 490.357025,204.958054 444.359924,204.958054 
	C444.359924,207.876083 444.359924,210.274368 444.359924,212.999786 
	C479.259583,212.999786 513.879822,212.999786 549.500000,212.997452 
M543.161438,322.059601 
	C522.934570,322.059601 502.707764,322.059601 482.457642,322.059601 
	C482.457642,326.374878 482.457642,329.945587 482.457642,333.569153 
	C503.343628,333.569153 523.880798,333.569153 545.166077,333.569153 
	C544.784485,329.521545 544.438843,325.855042 543.161438,322.059601 
z"/>
<path fill="#ECECEC" opacity="1.000000" stroke="none" 
	d="
M624.489868,374.743408 
	C624.658813,372.300232 624.693909,369.896362 625.737427,368.067963 
	C626.141602,367.359772 629.442200,367.296112 630.323486,368.118103 
	C631.483521,369.200104 632.409546,371.732483 631.935608,373.133698 
	C630.696472,376.797638 627.808228,376.830078 624.489868,374.743408 
z"/>
<path fill="#E5E5E5" opacity="1.000000" stroke="none" 
	d="
M649.130127,429.872498 
	C647.774902,428.183167 646.421936,426.623444 645.959167,424.833618 
	C645.779175,424.137451 647.630493,422.100830 648.514465,422.126404 
	C650.024170,422.170166 652.331116,422.996796 652.828430,424.137543 
	C654.091919,427.035828 652.833618,429.267761 649.130127,429.872498 
z"/>
<path fill="#DDDDDD" opacity="1.000000" stroke="none" 
	d="
M687.174805,493.950500 
	C685.219666,493.462982 683.201477,493.218506 682.189331,492.079803 
	C681.665039,491.489960 682.507629,488.746216 683.497375,488.024872 
	C684.408813,487.360596 687.520569,487.830841 687.621338,488.269989 
	C688.023438,490.021576 687.628662,491.956055 687.174805,493.950500 
z"/>
<path fill="#E5E5E5" opacity="1.000000" stroke="none" 
	d="
M437.787048,391.931824 
	C439.044220,390.401642 440.185394,388.745911 441.696686,388.272919 
	C442.363678,388.064178 444.336273,390.111389 444.673340,391.405914 
	C444.916931,392.341431 443.159912,394.818756 442.779419,394.721100 
	C441.033539,394.273102 439.458130,393.160950 437.787048,391.931824 
z"/>
<path fill="#ECECEC" opacity="1.000000" stroke="none" 
	d="
M413.995728,348.451996 
	C413.965607,350.274384 414.009460,351.959778 413.327484,353.266327 
	C413.083771,353.733246 410.731537,353.726135 409.983032,353.130066 
	C409.203461,352.509247 408.709412,350.015442 408.933044,349.894104 
	C410.423828,349.085632 412.140198,348.693176 413.995728,348.451996 
z"/>
<path fill="#E5E5E5" opacity="1.000000" stroke="none" 
	d="
M591.645020,338.376495 
	C593.326172,338.921112 594.934448,339.469574 595.909180,340.576111 
	C596.253784,340.967316 595.322998,343.077545 594.463623,343.730042 
	C593.863953,344.185272 591.576965,343.710876 591.463013,343.277985 
	C591.076050,341.808319 591.319763,340.172516 591.645020,338.376495 
z"/>
<path fill="#070707" opacity="1.000000" stroke="none" 
	d="
M406.708771,477.689514 
	C421.664246,469.351776 436.260345,461.090240 451.040283,453.171814 
	C466.471283,444.904663 477.426575,433.134705 481.272583,415.690887 
	C482.119934,411.847504 482.157654,407.779297 482.191193,403.811401 
	C482.299347,391.021362 482.231476,378.229858 482.231476,365.159851 
	C503.155640,365.159851 523.592957,365.159851 544.761902,365.159851 
	C544.761902,368.329773 544.755188,371.580353 544.763123,374.830872 
	C544.786377,384.328918 545.146362,393.839844 544.776245,403.322388 
	C543.903076,425.694153 555.053955,440.910004 573.398865,451.629791 
	C583.713013,457.656738 594.909058,462.206970 605.068115,468.461456 
	C656.300720,500.003265 688.279968,545.251587 696.513184,605.030579 
	C704.575073,663.565735 687.397156,715.259521 647.430786,758.955994 
	C622.856567,785.823792 593.164490,804.938416 557.482300,813.106873 
	C491.548187,828.200806 433.125214,813.407471 383.892303,766.362915 
	C354.924866,738.682922 336.128632,704.910461 329.640839,665.262024 
	C318.632629,597.988342 338.076630,540.457336 387.482300,493.330078 
	C393.355347,487.727905 400.093201,483.032318 406.708771,477.689514 
M423.302795,522.298950 
	C423.302795,522.298950 423.653503,522.549927 423.487732,523.273743 
	C415.731873,539.264099 422.090485,555.734009 430.502899,563.774414 
	C442.401947,575.147217 456.913391,576.925171 474.411682,568.876526 
	C483.079498,576.249451 491.704529,583.824158 500.641083,591.011536 
	C502.741852,592.701050 505.887848,593.916748 508.563904,593.937439 
	C535.222839,594.143677 561.884399,594.004761 588.544312,594.141479 
	C590.636658,594.152222 593.180664,594.969360 594.740234,596.311646 
	C611.266968,610.535645 627.687927,624.884644 643.955872,639.403320 
	C645.312134,640.613708 646.178284,643.461670 645.840576,645.283447 
	C644.699219,651.440857 642.912964,657.478699 641.329895,663.733337 
	C647.430176,663.733337 653.518677,663.733337 659.538574,663.733337 
	C676.852844,608.881653 660.671814,537.873474 604.316101,497.090607 
	C548.922974,457.004303 470.558685,459.233429 419.052155,501.427917 
	C364.377533,546.217773 355.792542,617.590698 371.639496,663.782532 
	C377.402344,663.782532 383.208191,663.782532 388.985901,663.782532 
	C389.091888,663.327087 389.266571,662.991272 389.220520,662.689087 
	C389.120605,662.033813 388.934235,661.387512 388.737396,660.751709 
	C379.417175,630.641418 380.596405,600.720825 391.114655,571.227234 
	C397.828308,552.401855 407.992645,535.571106 423.302795,522.298950 
M403.860199,716.638428 
	C450.049377,760.965088 504.117615,772.952698 564.583801,753.802246 
	C606.840698,740.419006 636.579956,712.049988 655.546936,671.213257 
	C561.104370,671.213257 467.733917,671.213257 374.341431,671.213257 
	C374.835449,679.082031 388.774139,701.847168 403.860199,716.638428 
M399.279358,637.023865 
	C401.070618,644.583496 402.759399,652.170227 404.749542,659.677124 
	C405.098969,660.995056 406.680115,662.928528 407.746826,662.964478 
	C415.909943,663.239929 424.086548,663.115723 432.258942,663.115723 
	C415.112396,649.715393 404.001709,633.491882 401.857147,611.795227 
	C401.373871,611.836548 400.890594,611.877930 400.407318,611.919312 
	C399.996277,619.981934 399.585205,628.044495 399.279358,637.023865 
M505.826324,374.301880 
	C501.084717,379.808197 501.144531,386.149353 505.979980,390.589752 
	C510.086853,394.361084 516.846863,394.445618 520.959534,390.777100 
	C525.244629,386.954773 525.881470,379.879852 522.336182,375.483887 
	C518.444946,370.658966 512.304443,370.011749 505.826324,374.301880 
M503.765594,419.526306 
	C507.114960,424.794067 510.607971,426.508606 515.637573,425.353577 
	C521.030457,424.115143 524.309937,420.479492 524.628113,414.928223 
	C524.914246,409.935944 522.499207,406.235046 518.076965,404.156586 
	C513.982544,402.232178 510.016022,402.915314 506.473999,405.866913 
	C502.176697,409.447937 501.581573,413.860382 503.765594,419.526306 
M506.522888,612.961121 
	C505.860046,613.698120 505.077423,614.359253 504.554443,615.184814 
	C501.762878,619.591370 502.014526,624.116943 504.895325,628.234192 
	C507.779541,632.356384 512.103638,633.295715 516.834778,632.043640 
	C521.819702,630.724365 524.726746,626.955078 524.331360,622.217773 
	C524.049744,618.843872 522.039124,614.964661 519.573975,612.576721 
	C515.984985,609.100159 511.303833,610.183533 506.522888,612.961121 
M503.270508,447.329895 
	C502.155273,456.962677 508.133575,463.717499 516.046265,461.765076 
	C521.061768,460.527527 524.532043,456.077972 524.531128,450.885742 
	C524.530273,445.904144 521.234802,441.698730 516.282227,440.359192 
	C511.279633,439.006104 506.849213,441.203918 503.270508,447.329895 
M524.967346,654.795837 
	C523.016479,646.976990 518.520386,643.591553 511.688171,644.796997 
	C505.565430,645.877258 502.084320,650.968933 502.869537,657.574646 
	C503.278656,661.016418 504.675812,663.064392 508.591400,662.687195 
	C511.711304,662.386597 514.899170,662.151672 518.001770,662.453491 
	C523.284302,662.967163 525.161804,660.462585 524.967346,654.795837 
M414.829071,573.611389 
	C414.727142,571.902588 414.625214,570.193787 414.523285,568.484985 
	C414.117706,568.414124 413.712158,568.343201 413.306610,568.272278 
	C411.797089,572.181763 409.950897,575.998596 408.843628,580.018860 
	C405.972473,590.443542 409.367859,594.602539 419.942535,594.691162 
	C418.276489,588.022156 416.584412,581.248779 414.829071,573.611389 
z"/>
<path fill="#080808" opacity="1.000000" stroke="none" 
	d="
M521.000000,305.983948 
	C508.014740,305.984406 495.529480,305.984406 482.623474,305.984406 
	C482.623474,293.422211 482.623474,281.030273 482.623474,268.232971 
	C502.984680,268.232971 523.385925,268.232971 544.248047,268.232971 
	C544.248047,280.519623 544.248047,293.025238 544.248047,305.983490 
	C536.734558,305.983490 529.117310,305.983490 521.000000,305.983948 
z"/>
<path fill="#070707" opacity="1.000000" stroke="none" 
	d="
M483.686584,255.564453 
	C475.886108,246.596680 468.319489,237.934067 460.725525,229.240173 
	C495.481781,229.240173 530.587341,229.240173 566.750793,229.240173 
	C563.390747,232.347931 560.444702,234.644318 558.021851,237.400604 
	C552.552063,243.623306 547.449341,250.169754 541.944641,256.359863 
	C540.643982,257.822479 538.360046,259.219421 536.503906,259.252075 
	C521.031311,259.524292 505.551056,259.352814 490.078033,259.610199 
	C486.872620,259.663544 485.121521,258.521729 483.686584,255.564453 
z"/>
<path fill="#090909" opacity="1.000000" stroke="none" 
	d="
M549.000000,212.998627 
	C513.879822,212.999786 479.259583,212.999786 444.359924,212.999786 
	C444.359924,210.274368 444.359924,207.876083 444.359924,204.958054 
	C490.357025,204.958054 536.214294,204.958054 582.502258,204.958054 
	C582.669495,207.458832 582.832581,209.897278 583.039856,212.997452 
	C571.696289,212.997452 560.598145,212.997452 549.000000,212.998627 
z"/>
<path fill="#111111" opacity="1.000000" stroke="none" 
	d="
M543.627319,322.124084 
	C544.438843,325.855042 544.784485,329.521545 545.166077,333.569153 
	C523.880798,333.569153 503.343628,333.569153 482.457642,333.569153 
	C482.457642,329.945587 482.457642,326.374878 482.457642,322.059601 
	C502.707764,322.059601 522.934570,322.059601 543.627319,322.124084 
z"/>
<path fill="#5daf9c" opacity="1.000000" stroke="none" 
	d="
M403.599762,716.398560 
	C388.774139,701.847168 374.835449,679.082031 374.341431,671.213257 
	C467.733917,671.213257 561.104370,671.213257 655.546936,671.213257 
	C636.579956,712.049988 606.840698,740.419006 564.583801,753.802246 
	C504.117615,772.952698 450.049377,760.965088 403.599762,716.398560 
z"/>
<path fill="#F7F7F7" opacity="1.000000" stroke="none" 
	d="
M422.996155,521.995667 
	C407.992645,535.571106 397.828308,552.401855 391.114655,571.227234 
	C380.596405,600.720825 379.417175,630.641418 388.737396,660.751709 
	C388.934235,661.387512 389.120605,662.033813 389.220520,662.689087 
	C389.266571,662.991272 389.091888,663.327087 388.985901,663.782532 
	C383.208191,663.782532 377.402344,663.782532 371.639496,663.782532 
	C355.792542,617.590698 364.377533,546.217773 419.052155,501.427917 
	C470.558685,459.233429 548.922974,457.004303 604.316101,497.090607 
	C660.671814,537.873474 676.852844,608.881653 659.538574,663.733337 
	C653.518677,663.733337 647.430176,663.733337 641.329895,663.733337 
	C642.912964,657.478699 644.699219,651.440857 645.840576,645.283447 
	C646.178284,643.461670 645.312134,640.613708 643.955872,639.403320 
	C627.687927,624.884644 611.266968,610.535645 594.740234,596.311646 
	C593.180664,594.969360 590.636658,594.152222 588.544312,594.141479 
	C561.884399,594.004761 535.222839,594.143677 508.563904,593.937439 
	C505.887848,593.916748 502.741852,592.701050 500.641083,591.011536 
	C491.704529,583.824158 483.079498,576.249451 474.411682,568.876526 
	C456.913391,576.925171 442.401947,575.147217 430.502899,563.774414 
	C422.090485,555.734009 415.731873,539.264099 423.682129,522.674805 
	C423.809082,521.821472 423.741608,521.567017 423.674164,521.312561 
	C423.448151,521.540283 423.222168,521.767944 422.996155,521.995667 
M447.960907,544.935181 
	C449.309967,546.629761 450.659027,548.324280 452.290009,550.690247 
	C455.383972,553.118713 457.826080,552.234375 459.674988,549.108948 
	C461.266479,546.418701 463.350159,543.784302 464.016144,540.852539 
	C464.600311,538.281006 464.288940,534.892761 463.008972,532.640625 
	C460.461639,528.158875 453.663177,527.375854 449.417419,530.395813 
	C444.869537,533.630737 444.347412,538.416138 447.960907,544.935181 
M647.126404,602.409851 
	C644.961487,583.486206 639.121277,565.739197 629.121521,549.561035 
	C598.735107,500.399994 543.892700,476.713898 487.083252,488.110718 
	C473.926056,490.750244 461.362854,495.177887 449.766998,502.669556 
	C465.187073,500.908081 476.932709,506.831024 484.899231,519.600525 
	C493.105469,532.754150 491.597656,546.119324 483.781891,559.090820 
	C490.979065,565.341125 498.025299,571.185608 504.718750,577.409546 
	C507.362000,579.867310 509.884918,580.816101 513.511230,580.779846 
	C539.496033,580.520081 565.483826,580.575317 591.469849,580.398560 
	C595.717773,580.369690 599.157959,581.592651 602.286682,584.468262 
	C607.551758,589.307434 613.035400,593.908386 618.411438,598.627441 
	C628.103027,607.134766 637.783081,615.655334 648.642151,625.202759 
	C648.107544,617.033081 647.658447,610.169006 647.126404,602.409851 
M437.651672,535.241516 
	C437.822388,534.426636 437.901337,533.579102 438.177704,532.801758 
	C441.641235,523.060974 451.208771,517.885803 460.275970,520.820984 
	C469.935059,523.947876 475.230743,533.472351 471.781372,543.424683 
	C469.597351,549.726257 475.028625,550.228577 477.070984,553.575623 
	C486.513855,540.522278 481.495880,523.977112 470.567322,516.134460 
	C459.340851,508.077942 444.246765,510.000519 434.648590,520.971191 
	C425.803864,531.080627 426.150330,546.630737 435.439941,556.493225 
	C444.014618,565.596680 458.927917,568.357178 467.644836,561.514893 
	C463.649353,559.448669 460.194733,556.293579 456.515717,556.005676 
	C443.300201,554.971252 437.282288,549.130066 437.651672,535.241516 
z"/>
<path fill="#6C6C6C" opacity="1.000000" stroke="none" 
	d="
M399.226746,636.565491 
	C399.585205,628.044495 399.996277,619.981934 400.407318,611.919312 
	C400.890594,611.877930 401.373871,611.836548 401.857147,611.795227 
	C404.001709,633.491882 415.112396,649.715393 432.258942,663.115723 
	C424.086548,663.115723 415.909943,663.239929 407.746826,662.964478 
	C406.680115,662.928528 405.098969,660.995056 404.749542,659.677124 
	C402.759399,652.170227 401.070618,644.583496 399.226746,636.565491 
z"/>
<path fill="#F4F4F4" opacity="1.000000" stroke="none" 
	d="
M506.106415,374.052307 
	C512.304443,370.011749 518.444946,370.658966 522.336182,375.483887 
	C525.881470,379.879852 525.244629,386.954773 520.959534,390.777100 
	C516.846863,394.445618 510.086853,394.361084 505.979980,390.589752 
	C501.144531,386.149353 501.084717,379.808197 506.106415,374.052307 
z"/>
<path fill="#F4F4F4" opacity="1.000000" stroke="none" 
	d="
M503.575836,419.196350 
	C501.581573,413.860382 502.176697,409.447937 506.473999,405.866913 
	C510.016022,402.915314 513.982544,402.232178 518.076965,404.156586 
	C522.499207,406.235046 524.914246,409.935944 524.628113,414.928223 
	C524.309937,420.479492 521.030457,424.115143 515.637573,425.353577 
	C510.607971,426.508606 507.114960,424.794067 503.575836,419.196350 
z"/>
<path fill="#F6F6F6" opacity="1.000000" stroke="none" 
	d="
M506.810608,612.705139 
	C511.303833,610.183533 515.984985,609.100159 519.573975,612.576721 
	C522.039124,614.964661 524.049744,618.843872 524.331360,622.217773 
	C524.726746,626.955078 521.819702,630.724365 516.834778,632.043640 
	C512.103638,633.295715 507.779541,632.356384 504.895325,628.234192 
	C502.014526,624.116943 501.762878,619.591370 504.554443,615.184814 
	C505.077423,614.359253 505.860046,613.698120 506.810608,612.705139 
z"/>
<path fill="#F4F4F4" opacity="1.000000" stroke="none" 
	d="
M503.465759,446.975098 
	C506.849213,441.203918 511.279633,439.006104 516.282227,440.359192 
	C521.234802,441.698730 524.530273,445.904144 524.531128,450.885742 
	C524.532043,456.077972 521.061768,460.527527 516.046265,461.765076 
	C508.133575,463.717499 502.155273,456.962677 503.465759,446.975098 
z"/>
<path fill="#F4F4F4" opacity="1.000000" stroke="none" 
	d="
M524.969604,655.209351 
	C525.161804,660.462585 523.284302,662.967163 518.001770,662.453491 
	C514.899170,662.151672 511.711304,662.386597 508.591400,662.687195 
	C504.675812,663.064392 503.278656,661.016418 502.869537,657.574646 
	C502.084320,650.968933 505.565430,645.877258 511.688171,644.796997 
	C518.520386,643.591553 523.016479,646.976990 524.969604,655.209351 
z"/>
<path fill="#646464" opacity="1.000000" stroke="none" 
	d="
M414.860718,574.043457 
	C416.584412,581.248779 418.276489,588.022156 419.942535,594.691162 
	C409.367859,594.602539 405.972473,590.443542 408.843628,580.018860 
	C409.950897,575.998596 411.797089,572.181763 413.306610,568.272278 
	C413.712158,568.343201 414.117706,568.414124 414.523285,568.484985 
	C414.625214,570.193787 414.727142,571.902588 414.860718,574.043457 
z"/>
<path fill="#070707" opacity="1.000000" stroke="none" 
	d="
M647.167847,602.857361 
	C647.658447,610.169006 648.107544,617.033081 648.642151,625.202759 
	C637.783081,615.655334 628.103027,607.134766 618.411438,598.627441 
	C613.035400,593.908386 607.551758,589.307434 602.286682,584.468262 
	C599.157959,581.592651 595.717773,580.369690 591.469849,580.398560 
	C565.483826,580.575317 539.496033,580.520081 513.511230,580.779846 
	C509.884918,580.816101 507.362000,579.867310 504.718750,577.409546 
	C498.025299,571.185608 490.979065,565.341125 483.781891,559.090820 
	C491.597656,546.119324 493.105469,532.754150 484.899231,519.600525 
	C476.932709,506.831024 465.187073,500.908081 449.766998,502.669556 
	C461.362854,495.177887 473.926056,490.750244 487.083252,488.110718 
	C543.892700,476.713898 598.735107,500.399994 629.121521,549.561035 
	C639.121277,565.739197 644.961487,583.486206 647.167847,602.857361 
z"/>
<path fill="#0D0D0D" opacity="1.000000" stroke="none" 
	d="
M437.567932,535.633484 
	C437.282288,549.130066 443.300201,554.971252 456.515717,556.005676 
	C460.194733,556.293579 463.649353,559.448669 467.644836,561.514893 
	C458.927917,568.357178 444.014618,565.596680 435.439941,556.493225 
	C426.150330,546.630737 425.803864,531.080627 434.648590,520.971191 
	C444.246765,510.000519 459.340851,508.077942 470.567322,516.134460 
	C481.495880,523.977112 486.513855,540.522278 477.070984,553.575623 
	C475.028625,550.228577 469.597351,549.726257 471.781372,543.424683 
	C475.230743,533.472351 469.935059,523.947876 460.275970,520.820984 
	C451.208771,517.885803 441.641235,523.060974 438.177704,532.801758 
	C437.901337,533.579102 437.822388,534.426636 437.567932,535.633484 
z"/>
<path fill="#140F10" opacity="1.000000" stroke="none" 
	d="
M447.903412,544.271057 
	C444.347412,538.416138 444.869537,533.630737 449.417419,530.395813 
	C453.663177,527.375854 460.461639,528.158875 463.008972,532.640625 
	C464.288940,534.892761 464.600311,538.281006 464.016144,540.852539 
	C463.350159,543.784302 461.266479,546.418701 459.674988,549.108948 
	C457.826080,552.234375 455.383972,553.118713 452.372864,550.091797 
	C452.239349,546.278320 452.113190,543.051453 451.693848,539.863159 
	C451.640717,539.459412 450.025604,538.987976 449.181946,539.065796 
	C448.690552,539.111084 448.032684,540.139954 447.913849,540.808655 
	C447.714996,541.928040 447.887299,543.113464 447.903412,544.271057 
z"/>
<path fill="#5daf9c" opacity="1.000000" stroke="none" 
	d="
M447.932159,544.603149 
	C447.887299,543.113464 447.714996,541.928040 447.913849,540.808655 
	C448.032684,540.139954 448.690552,539.111084 449.181946,539.065796 
	C450.025604,538.987976 451.640717,539.459412 451.693848,539.863159 
	C452.113190,543.051453 452.239349,546.278320 452.231873,549.756104 
	C450.659027,548.324280 449.309967,546.629761 447.932159,544.603149 
z"/>
<path fill="#070707" opacity="1.000000" stroke="none" 
	d="
M423.149475,522.147339 
	C423.222168,521.767944 423.448151,521.540283 423.674164,521.312561 
	C423.741608,521.567017 423.809082,521.821472 423.765015,522.312927 
	C423.653503,522.549927 423.302795,522.298950 423.149475,522.147339 
z"/>
</svg>