<svg width="28" height="24" viewBox="0 0 28 24" fill="none" xmlns="http://www.w3.org/2000/svg">
<path d="M27.0051 0.63508C26.6701 0.225342 26.1682 -0.000244141 25.5919 -0.000244141C25.2787 -0.000244141 24.9468 0.0656739 24.6057 0.196045L1.38788 9.05899C0.155735 9.5292 -0.0102109 10.2348 0.000461576 10.6136C0.011134 10.9924 0.21684 11.6875 1.47368 12.0874C1.48121 12.0898 1.48874 12.0921 1.49628 12.0941L6.31227 13.4724L8.91676 20.92C9.27188 21.9354 10.069 22.5661 10.9973 22.5661C11.5826 22.5661 12.1583 22.3209 12.6622 21.8571L15.641 19.1143L19.9617 22.5933C19.9621 22.5937 19.9627 22.5939 19.9632 22.5944L20.0042 22.6274C20.0079 22.6304 20.0119 22.6335 20.0157 22.6364C20.4959 23.0089 21.0202 23.2056 21.5322 23.2058H21.5324C22.5329 23.2058 23.3296 22.4652 23.5617 21.3193L27.3659 2.53498C27.5186 1.78101 27.3906 1.10634 27.0051 0.63508ZM7.92339 13.2106L17.2149 8.46384L11.4294 14.6114C11.3346 14.712 11.2674 14.8353 11.2344 14.9694L10.1188 19.4883L7.92339 13.2106ZM11.5734 20.6748C11.5349 20.7102 11.4961 20.7418 11.4574 20.7708L12.4925 16.5789L14.3752 18.095L11.5734 20.6748ZM25.7907 2.21586L21.9865 21.0004C21.9499 21.1802 21.8329 21.5985 21.5322 21.5985C21.3836 21.5985 21.197 21.5175 21.0059 21.3704L16.11 17.4283C16.1094 17.4276 16.1085 17.427 16.1077 17.4266L13.1945 15.0808L21.5611 6.19061C21.829 5.90601 21.8532 5.47012 21.6186 5.15748C21.3839 4.84484 20.9584 4.74648 20.6104 4.92436L6.84966 11.9544L1.96817 10.5577L25.1788 1.69751C25.3749 1.62259 25.5118 1.6069 25.5919 1.6069C25.6411 1.6069 25.7286 1.61276 25.761 1.65273C25.8037 1.70484 25.8581 1.8825 25.7907 2.21586Z" fill="white"/>
</svg>
